<?xml version="1.0" standalone="no"?>
<!DOCTYPE svg PUBLIC "-//W3C//DTD SVG 20010904//EN"
 "http://www.w3.org/TR/2001/REC-SVG-20010904/DTD/svg10.dtd">
<svg version="1.0" xmlns="http://www.w3.org/2000/svg"
 width="800.000000pt" height="500.000000pt" viewBox="0 0 800.000000 500.000000"
 preserveAspectRatio="xMidYMid meet">

<g transform="translate(0.000000,500.000000) scale(0.100000,-0.100000)"
fill="#000000" stroke="none">
<path d="M0 2500 l0 -2500 4000 0 4000 0 0 2500 0 2500 -4000 0 -4000 0 0
-2500z m7910 5 l0 -2415 -3912 0 -3913 0 2 2412 c2 1327 3 2414 3 2416 0 1
1759 2 3910 2 l3910 0 0 -2415z"/>
<path d="M4355 4756 c-143 -28 -276 -96 -354 -182 -28 -30 -51 -59 -51 -63 0
-5 19 -5 43 0 104 21 289 48 369 54 139 11 128 37 128 -310 l0 -295 31 0 30 0
-2 296 c-2 248 -1 297 12 305 25 17 252 -5 456 -45 l73 -14 -18 30 c-46 81
-192 173 -329 209 -100 26 -291 33 -388 15z"/>
<path d="M7022 4686 c-153 -39 -292 -147 -354 -274 -28 -58 -33 -80 -36 -164
-4 -80 -1 -107 17 -161 48 -142 172 -256 341 -313 69 -23 260 -26 335 -5 255
72 418 300 376 526 -31 170 -149 304 -326 371 -57 22 -91 27 -185 30 -75 2
-133 -1 -168 -10z m297 -150 c54 -51 53 -124 -3 -179 l-32 -32 26 -69 c27 -73
53 -102 70 -76 5 8 12 11 15 8 12 -12 -6 -28 -30 -28 -40 0 -75 39 -88 100
-11 49 -15 55 -42 60 -48 8 -39 35 12 35 52 0 76 28 76 89 0 69 -47 116 -116
116 -18 0 -17 -2 7 -27 18 -18 26 -35 24 -52 -3 -27 -28 -36 -36 -12 -3 8 0
11 6 7 6 -3 13 -2 17 4 8 14 -15 54 -25 44 -11 -11 -16 -367 -6 -383 5 -7 -5
-11 -30 -11 -30 0 -35 3 -26 12 15 15 17 374 3 383 -12 7 -34 -32 -26 -45 4
-6 11 -7 17 -4 6 4 9 1 6 -7 -8 -23 -33 -16 -36 11 -2 16 7 35 23 53 l26 27
-36 0 c-76 0 -125 -92 -89 -167 18 -36 21 -38 62 -35 38 3 43 1 40 -15 -2 -11
-13 -19 -30 -21 -22 -3 -28 -10 -38 -52 -14 -56 -35 -85 -75 -100 -22 -8 -32
-8 -43 3 -10 10 -11 17 -3 21 6 4 11 0 11 -8 0 -10 6 -13 18 -9 25 10 38 30
62 96 l22 58 -26 24 c-32 29 -46 64 -46 112 0 27 8 43 34 69 l35 35 120 -3
c117 -3 120 -4 150 -32z m211 -40 c0 -19 -4 -22 -24 -19 -16 3 -36 -3 -55 -17
-25 -17 -31 -29 -32 -58 0 -34 -1 -35 -10 -13 -16 39 17 91 71 112 25 9 46 17
48 18 1 1 2 -10 2 -23z m-647 -13 c28 -14 47 -48 47 -84 0 -12 -5 -17 -10 -14
-6 4 -8 15 -5 25 8 25 -64 75 -94 65 -17 -5 -21 -2 -21 15 0 17 4 19 28 14 15
-4 40 -13 55 -21z m683 -147 c19 -15 19 -15 -1 -15 -11 1 -31 -2 -45 -6 -19
-5 -22 -4 -10 4 8 6 11 11 5 11 -10 0 15 20 26 20 3 0 14 -6 25 -14z m-750
-11 c-3 -8 -9 -22 -12 -30 -5 -11 -2 -13 10 -9 10 4 18 -1 23 -12 3 -11 9 -21
12 -24 3 -3 17 -18 31 -33 19 -22 22 -30 11 -36 -9 -6 -21 -1 -35 16 l-21 25
-20 -23 c-14 -17 -15 -20 -3 -10 22 16 38 7 38 -23 0 -12 5 -27 12 -34 18 -18
3 -25 -21 -10 -13 8 -19 19 -15 30 10 34 -12 18 -25 -17 -9 -25 -9 -40 -2 -54
7 -12 7 -22 1 -26 -5 -3 -16 8 -25 25 -12 23 -13 35 -5 50 6 12 8 29 5 40 -3
11 1 30 10 44 13 19 14 29 5 43 -9 16 -10 15 -5 -7 l5 -25 -12 23 c-9 19 -9
25 3 33 12 7 11 9 -2 9 -11 0 -15 8 -14 23 3 29 1 27 31 27 19 0 25 -4 20 -15z
m64 -13 c0 -5 -7 -17 -16 -28 -14 -17 -15 -17 -10 -1 3 10 6 23 6 28 0 5 5 9
10 9 6 0 10 -4 10 -8z m601 -14 c1 -13 1 -26 0 -30 0 -4 6 -5 14 -2 8 4 13 10
10 15 -3 4 8 15 24 24 33 17 51 5 31 -20 -7 -8 -10 -22 -6 -30 3 -9 2 -13 -4
-10 -13 8 -13 -8 0 -21 14 -14 20 -124 9 -146 -5 -10 -16 -18 -25 -18 -12 0
-12 3 2 25 14 22 14 26 1 46 -9 12 -13 28 -10 35 3 8 0 14 -6 14 -6 0 -11 -11
-11 -24 0 -13 -7 -27 -16 -30 -21 -8 -33 2 -16 13 7 4 12 12 11 17 -6 32 2 46
22 41 20 -5 20 -5 4 13 -17 18 -18 18 -39 -7 -14 -16 -27 -23 -35 -19 -9 6 -6
16 14 36 26 27 26 29 11 64 -13 31 -13 36 0 36 8 0 15 -10 15 -22z m129 -49
c0 -5 4 -8 9 -5 5 4 7 -3 4 -14 -4 -16 -8 -18 -19 -9 -8 6 -12 15 -9 19 3 5
-1 11 -7 13 -8 3 -6 6 5 6 9 1 17 -4 17 -10z m-871 -6 c0 -5 -4 -17 -9 -28 -8
-18 -9 -17 -9 8 -1 15 4 27 9 27 6 0 10 -3 9 -7z m860 -73 c0 -8 -6 0 -14 19
-8 18 -15 38 -14 45 1 15 28 -46 28 -64z m-846 25 c-3 -9 -8 -14 -10 -11 -3 3
-2 9 2 15 9 16 15 13 8 -4z m154 -142 c-3 -10 -5 -2 -5 17 0 19 2 27 5 18 2
-10 2 -26 0 -35z m93 -2 c-1 -10 -6 -7 -15 9 -19 33 -18 50 0 26 8 -11 15 -27
15 -35z m38 19 c0 -16 -3 -32 -7 -35 -9 -5 -12 44 -4 58 8 13 10 8 11 -23z
m56 -10 l7 -25 -15 25 c-17 28 -21 50 -7 35 5 -6 12 -21 15 -35z m99 -1 c-8
-29 -13 -23 -13 14 0 22 3 28 9 18 5 -7 6 -22 4 -32z m51 7 c2 -14 -1 -26 -5
-26 -5 0 -9 14 -9 32 0 36 10 32 14 -6z m43 -13 c-3 -10 -5 -2 -5 17 0 19 2
27 5 18 2 -10 2 -26 0 -35z m62 7 c11 -24 11 -24 -3 -6 -9 11 -16 24 -16 30 0
12 5 7 19 -24z m64 5 c23 -32 17 -32 -13 0 -13 14 -19 25 -14 25 5 0 17 -12
27 -25z m-269 -1 c9 -24 2 -26 -12 -4 -7 11 -8 20 -3 20 5 0 12 -7 15 -16z
m-210 -10 c3 -8 2 -12 -4 -9 -6 3 -10 10 -10 16 0 14 7 11 14 -7z m-54 -94 c0
-19 5 -30 14 -30 20 0 29 30 14 48 -11 13 -10 14 2 10 10 -3 15 -18 15 -40 0
-21 8 -45 20 -58 l20 -23 -23 12 c-13 7 -26 19 -29 27 -8 21 -33 17 -33 -6 0
-11 -4 -20 -10 -20 -5 0 -10 25 -10 55 0 30 5 55 10 55 6 0 10 -13 10 -30z
m112 -10 c-5 -45 10 -69 42 -71 17 -1 18 -2 3 -6 -32 -8 -67 24 -67 60 0 25
14 57 25 57 0 0 -1 -18 -3 -40z m86 28 c16 -16 15 -73 -1 -86 -10 -8 -12 -2
-8 30 2 32 -1 45 -15 55 -14 10 -15 13 -3 13 8 0 20 -5 27 -12z m70 -18 c23
-30 30 -80 12 -80 -5 0 -10 12 -10 26 0 14 -9 39 -21 55 -27 38 -9 38 19 -1z
m38 2 c-18 -16 -18 -16 -6 6 6 13 14 21 18 18 3 -4 -2 -14 -12 -24z m104 -28
c11 -31 19 -59 16 -61 -7 -8 -56 98 -50 108 9 15 12 11 34 -47z m80 2 c0 -30
-4 -58 -10 -61 -6 -4 -10 17 -10 54 0 34 4 61 10 61 6 0 10 -24 10 -54z m84
43 c-3 -6 6 -23 21 -39 20 -21 25 -34 20 -47 -8 -17 -8 -17 -13 2 -2 11 -15
30 -28 42 -23 21 -24 53 -2 53 5 0 6 -5 2 -11z m-208 -55 c-4 -9 -9 -15 -11
-12 -3 3 -3 13 1 22 4 9 9 15 11 12 3 -3 3 -13 -1 -22z m215 -52 c-7 -2 -18 1
-23 6 -8 8 -4 9 13 5 13 -4 18 -8 10 -11z"/>
<path d="M7154 4539 c-11 -19 13 -34 31 -19 13 11 13 15 3 21 -18 12 -26 11
-34 -2z"/>
<path d="M7080 4340 c0 -5 9 -10 20 -10 11 0 20 5 20 10 0 6 -9 10 -20 10 -11
0 -20 -4 -20 -10z"/>
<path d="M7220 4340 c0 -5 7 -10 15 -10 8 0 15 5 15 10 0 6 -7 10 -15 10 -8 0
-15 -4 -15 -10z"/>
<path d="M6776 4321 c-3 -5 1 -11 9 -15 8 -3 15 -1 15 4 0 13 -18 22 -24 11z"/>
<path d="M7522 4250 c0 -14 2 -19 5 -12 2 6 2 18 0 25 -3 6 -5 1 -5 -13z"/>
<path d="M978 4623 c6 -2 18 -2 25 0 6 3 1 5 -13 5 -14 0 -19 -2 -12 -5z"/>
<path d="M1088 4613 c7 -3 16 -2 19 1 4 3 -2 6 -13 5 -11 0 -14 -3 -6 -6z"/>
<path d="M1253 4533 c9 -2 23 -2 30 0 6 3 -1 5 -18 5 -16 0 -22 -2 -12 -5z"/>
<path d="M4190 4474 c-53 -5 -169 -24 -223 -36 -54 -11 -63 -29 -55 -102 16
-143 151 -273 352 -340 27 -9 52 -13 56 -9 11 12 88 393 89 440 2 50 -55 62
-219 47z"/>
<path d="M4645 4464 c-24 -25 -17 -84 42 -354 14 -63 27 -118 30 -122 6 -11
103 21 176 59 154 81 254 230 231 347 -4 25 -12 36 -30 40 -77 20 -214 38
-315 42 -101 4 -119 2 -134 -12z"/>
<path d="M966 4462 c-3 -6 0 -13 6 -15 7 -3 0 -4 -17 -3 -32 3 -73 -28 -54
-40 6 -3 16 -1 22 5 14 14 84 15 92 1 3 -5 10 -10 16 -10 5 0 4 9 -3 20 -7 11
-18 20 -25 20 -7 0 -16 7 -21 16 -6 10 -12 13 -16 6z"/>
<path d="M2690 4451 c0 -5 9 -7 20 -4 11 3 20 7 20 9 0 2 -9 4 -20 4 -11 0
-20 -4 -20 -9z"/>
<path d="M2792 4455 c9 -9 78 -12 78 -3 0 4 -19 8 -42 8 -23 0 -39 -2 -36 -5z"/>
<path d="M2605 4440 c3 -5 12 -7 20 -3 21 7 19 13 -6 13 -11 0 -18 -4 -14 -10z"/>
<path d="M2176 4423 c-6 -14 -5 -15 5 -6 7 7 10 15 7 18 -3 3 -9 -2 -12 -12z"/>
<path d="M1295 4395 c11 -9 19 -21 18 -26 -4 -11 15 -11 42 1 19 8 19 9 -3 9
-12 1 -35 8 -50 17 -25 15 -26 15 -7 -1z"/>
<path d="M2742 4394 c2 -13 -5 -23 -22 -31 l-25 -12 28 5 c43 9 32 -13 -15
-30 -68 -24 -88 -28 -88 -18 0 6 17 17 38 26 32 15 33 16 7 10 -16 -3 -38 -7
-47 -9 -10 -2 -23 4 -30 13 -25 32 -60 44 -103 33 l-40 -10 48 5 c87 10 48
-13 -50 -29 -54 -10 -156 -28 -228 -42 -175 -33 -347 -49 -410 -37 -48 9 -49
10 -25 20 l25 12 -25 -3 c-21 -2 -25 -8 -28 -37 -4 -62 2 -65 150 -63 126 1
163 6 483 63 113 20 160 33 176 47 15 13 19 12 33 -9 9 -12 16 -28 16 -35 0
-8 12 -18 26 -23 33 -13 32 -13 36 12 4 30 50 53 78 38 27 -15 26 -40 -3 -40
-45 0 -61 -22 -54 -76 9 -76 -17 -146 -75 -200 -27 -25 -53 -42 -58 -39 -6 4
-8 11 -5 16 4 5 -5 9 -18 9 -32 0 -43 26 -17 40 28 15 25 36 -8 49 -16 7 -36
25 -45 41 -21 34 -61 64 -100 74 -85 20 -181 -65 -179 -159 1 -39 49 -144 77
-171 20 -18 21 -22 7 -31 -14 -8 -14 -14 -2 -44 7 -19 19 -41 27 -50 7 -8 13
-33 13 -55 0 -36 7 -46 83 -120 45 -44 123 -117 173 -162 100 -90 114 -117
114 -221 0 -28 4 -51 8 -51 29 0 205 150 274 233 40 49 46 61 35 71 -8 6 -40
54 -72 106 -39 64 -83 118 -132 163 -40 38 -73 75 -73 82 0 12 84 180 100 200
5 6 18 48 30 95 11 47 26 98 32 113 13 33 1 47 -36 40 -12 -3 -28 2 -34 10 -9
11 -8 18 8 32 15 13 17 22 9 36 -5 11 -16 19 -23 19 -22 0 -37 25 -39 66 -1
21 -8 39 -15 42 -9 3 -13 -2 -10 -14z m-189 -500 c-2 -7 -14 -15 -26 -18 -28
-7 -35 0 -8 9 25 8 28 35 4 35 -15 0 -15 2 -4 9 17 11 42 -15 34 -35z m-64 14
c-6 -7 -25 -14 -42 -14 -17 -1 -33 -6 -35 -12 -1 -5 -12 -7 -24 -4 -16 4 -9 9
33 23 69 22 84 23 68 7z m-132 -34 c-3 -3 -12 -4 -19 -1 -8 3 -5 6 6 6 11 1
17 -2 13 -5z m133 -16 c0 -18 -2 -20 -9 -8 -6 8 -7 18 -5 22 9 14 14 9 14 -14z
m-177 5 c-7 -2 -19 -2 -25 0 -7 3 -2 5 12 5 14 0 19 -2 13 -5z m122 -13 c-25
-11 -75 -13 -58 -2 6 4 26 8 45 9 26 1 29 0 13 -7z m116 -14 c-13 -16 -95 -46
-120 -45 -9 0 10 9 43 19 32 10 63 23 69 29 16 16 21 13 8 -3z m-240 -13 c13
-16 12 -17 -3 -4 -10 7 -18 15 -18 17 0 8 8 3 21 -13z m89 -39 c0 -2 -9 -4
-21 -4 -11 0 -18 4 -14 10 5 8 35 3 35 -6z"/>
<path d="M2893 4384 c-3 -8 -11 -14 -19 -14 -8 0 -14 -4 -14 -10 0 -5 -12 -10
-27 -10 l-28 0 29 -15 c15 -8 36 -15 46 -15 11 0 22 -11 28 -27 l10 -28 1 31
c1 19 7 34 16 38 8 3 15 16 15 30 0 18 -7 25 -26 29 -16 3 -28 0 -31 -9z"/>
<path d="M807 4373 c-10 -10 -8 -53 2 -53 5 0 7 9 4 21 -4 12 0 25 8 30 8 5 9
9 3 9 -6 0 -14 -3 -17 -7z"/>
<path d="M844 4350 c0 -16 3 -30 8 -30 4 0 8 8 8 17 0 15 2 14 15 -3 14 -18
14 -17 15 14 0 32 -14 44 -23 20 -4 -10 -6 -10 -6 0 -2 26 -17 10 -17 -18z"/>
<path d="M900 4350 c0 -28 19 -44 21 -17 0 6 2 20 4 30 2 9 -3 17 -11 17 -9 0
-14 -11 -14 -30z"/>
<path d="M951 4349 c0 -27 2 -30 8 -14 8 19 8 19 19 0 10 -18 11 -16 11 15 0
19 -3 29 -6 22 -4 -10 -8 -10 -19 -1 -12 9 -14 6 -13 -22z"/>
<path d="M1011 4345 c1 -18 3 -23 6 -12 5 18 5 18 19 0 12 -17 13 -15 14 14 0
26 -4 31 -20 30 -16 -1 -20 -8 -19 -32z"/>
<path d="M1066 4364 c-3 -9 -2 -23 4 -32 9 -16 9 -16 10 1 0 9 4 17 9 17 5 0
12 -8 14 -17 3 -10 5 -3 6 15 1 25 -3 32 -18 32 -10 0 -22 -7 -25 -16z"/>
<path d="M1132 4350 c0 -19 2 -27 5 -17 2 9 2 25 0 35 -3 9 -5 1 -5 -18z"/>
<path d="M2330 4360 c-50 -11 1 -11 60 -1 41 8 42 8 10 8 -19 0 -51 -3 -70 -7z"/>
<path d="M2243 4343 c9 -2 25 -2 35 0 9 3 1 5 -18 5 -19 0 -27 -2 -17 -5z"/>
<path d="M2178 4333 c7 -3 16 -2 19 1 4 3 -2 6 -13 5 -11 0 -14 -3 -6 -6z"/>
<path d="M784 4288 c10 -6 22 -6 26 -2 5 5 -3 10 -18 11 -22 1 -24 0 -8 -9z"/>
<path d="M890 4232 c0 -57 -3 -72 -15 -72 -12 0 -15 13 -15 60 0 33 -4 60 -10
60 -6 0 -10 -30 -10 -70 l0 -70 38 0 37 0 -5 74 c-7 97 -20 109 -20 18z"/>
<path d="M938 4220 c-3 -71 -1 -80 15 -80 13 0 17 8 17 38 0 29 5 39 23 47 25
11 36 52 13 52 -8 0 -12 -6 -10 -12 3 -7 -2 -18 -11 -25 -14 -12 -19 -5 -17
30 0 3 -6 10 -13 17 -11 10 -14 -2 -17 -67z"/>
<path d="M1063 4288 c-13 -6 -23 -20 -24 -32 -6 -120 -7 -116 29 -116 17 0 32
5 32 10 0 6 -7 10 -15 10 -21 0 -19 50 3 66 16 13 16 13 0 14 -21 0 -24 30 -6
48 14 14 10 14 -19 0z"/>
<path d="M1111 4223 c-1 -74 1 -83 17 -83 15 0 17 6 14 36 -5 43 9 40 28 -6 7
-16 19 -30 26 -30 18 0 18 4 -2 42 -13 24 -14 36 -5 55 12 25 7 43 -10 43 -6
0 -8 -4 -5 -9 3 -4 -1 -17 -9 -27 -14 -18 -15 -18 -21 4 -3 12 -10 22 -14 22
-5 0 -11 8 -13 18 -3 9 -5 -20 -6 -65z"/>
<path d="M760 4271 c0 -5 4 -20 9 -33 22 -60 22 -78 1 -78 -11 0 -20 -4 -20
-10 0 -5 16 -10 35 -10 42 0 43 7 14 84 -19 49 -39 73 -39 47z"/>
<path d="M1336 4200 c15 -27 31 -50 35 -50 5 0 -6 23 -23 50 -17 28 -33 50
-35 50 -2 0 8 -22 23 -50z"/>
<path d="M691 4083 c-6 -21 -11 -75 -11 -120 l0 -83 33 16 c30 14 32 18 28 61
-4 50 9 52 29 3 11 -25 16 -29 39 -23 14 3 27 7 29 8 1 1 -9 23 -24 48 l-26
47 21 29 c12 16 21 31 21 34 0 12 -47 0 -58 -15 -16 -22 -32 -23 -32 -3 0 8
-9 19 -20 25 -17 9 -20 6 -29 -27z"/>
<path d="M900 4111 c0 -7 -4 -10 -9 -7 -9 6 -26 -132 -18 -140 3 -3 15 -2 28
1 23 6 24 9 19 75 -3 37 -8 72 -13 76 -4 4 -7 2 -7 -5z"/>
<path d="M958 4048 c-3 -64 -2 -69 17 -66 14 2 21 12 23 36 2 17 6 32 10 32 4
0 22 -17 39 -37 l33 -38 -4 45 c-3 25 -5 55 -5 68 -1 26 -26 30 -36 5 -6 -17
-8 -17 -23 2 -9 11 -25 21 -34 21 -14 1 -17 -10 -20 -68z"/>
<path d="M1220 4107 c0 -7 9 -36 20 -64 20 -53 20 -53 0 -53 -11 0 -20 -4 -20
-9 0 -10 60 -24 68 -16 10 10 -38 143 -53 149 -8 3 -15 0 -15 -7z"/>
<path d="M1100 4096 c-33 -33 7 -98 68 -109 30 -6 32 -5 32 23 0 20 -5 30 -15
30 -8 0 -15 -7 -15 -15 0 -22 -18 -18 -35 9 -11 17 -13 30 -6 48 7 19 6 25 -5
25 -7 0 -18 -5 -24 -11z"/>
<path d="M605 4040 c3 -5 8 -10 11 -10 2 0 4 5 4 10 0 6 -5 10 -11 10 -5 0 -7
-4 -4 -10z"/>
<path d="M924 3744 c3 -9 16 -29 29 -45 17 -22 28 -28 48 -24 18 3 33 -2 45
-16 18 -20 18 -20 -11 -13 -17 5 -52 8 -78 7 -34 -1 -60 6 -90 23 -52 29 -61
30 -47 3 9 -17 8 -23 -7 -35 -17 -13 -17 -13 1 -14 11 0 27 -6 35 -14 9 -7 29
-18 46 -23 24 -8 30 -15 30 -39 0 -24 -4 -29 -22 -28 -13 0 -23 -2 -23 -6 0
-13 78 -66 86 -58 2 2 5 22 6 45 2 24 7 39 14 36 8 -3 8 -15 0 -43 -8 -32 -7
-46 8 -76 14 -31 15 -42 5 -66 -10 -24 -10 -31 1 -38 10 -6 8 -9 -6 -13 -18
-4 -18 -5 1 -6 26 -1 71 23 68 36 -2 11 47 11 77 1 8 -2 12 -3 8 -1 -5 3 -8 9
-8 14 0 5 9 4 19 -3 11 -7 18 -15 15 -19 -5 -8 59 -29 88 -29 11 0 16 7 15 20
-1 11 -5 20 -10 20 -4 0 -5 5 -2 10 3 6 1 10 -5 10 -6 0 -9 4 -6 9 3 5 -4 20
-15 35 -22 28 -17 55 7 35 8 -6 17 -9 20 -6 7 7 -54 97 -65 97 -5 0 -11 8 -14
19 -6 23 -60 34 -106 21 -28 -8 -32 -7 -22 3 6 6 35 12 62 11 34 0 45 2 35 8
-9 5 -16 14 -16 19 0 6 5 7 10 4 18 -11 11 49 -10 83 -22 36 -72 62 -117 62
-24 -1 -25 -2 -10 -11 18 -11 24 -49 7 -49 -17 0 -70 30 -70 39 0 5 -7 12 -16
15 -12 5 -15 2 -10 -10z m194 -73 l19 -38 -28 16 c-16 9 -24 17 -19 19 6 2 6
11 0 23 -7 13 -7 19 -1 19 6 0 19 -17 29 -39z m-73 -89 c-24 -12 -29 -12 -43
2 -15 15 -13 16 27 14 l43 -1 -27 -15z m-5 -26 c0 -2 -8 -10 -17 -17 -16 -13
-17 -12 -4 4 13 16 21 21 21 13z m64 -69 c-16 -19 -35 -42 -42 -53 -7 -10 -5
-3 4 16 19 40 43 70 57 70 5 0 -4 -15 -19 -33z m121 -22 c0 -17 -51 -17 -65 0
-12 15 -10 16 26 13 21 -2 39 -7 39 -13z"/>
<path d="M785 3740 c-3 -5 0 -10 7 -10 7 0 33 -14 57 -30 27 -18 56 -30 75
-29 17 0 25 3 18 6 -7 3 -36 20 -63 39 -52 34 -83 42 -94 24z"/>
<path d="M3710 3695 l0 -54 58 -3 57 -3 2 -140 1 -140 76 -3 75 -3 3 143 3
143 58 3 57 3 0 54 0 55 -195 0 -195 0 0 -55z"/>
<path d="M4200 3718 c-7 -18 -19 -46 -26 -63 -6 -16 -32 -84 -57 -150 -25 -66
-48 -128 -52 -138 -7 -16 -1 -18 70 -15 l78 3 38 108 c20 59 40 109 44 110 4
1 17 -29 31 -68 13 -38 31 -89 40 -112 l16 -43 75 0 c72 0 74 1 67 23 -7 24
-59 161 -101 267 -47 120 -36 110 -128 110 l-83 0 -12 -32z"/>
<path d="M4500 3695 l0 -54 58 -3 57 -3 3 -142 3 -143 80 0 80 0 -2 143 -2
142 56 3 57 3 0 54 0 55 -195 0 -195 0 0 -55z"/>
<path d="M4972 3667 c-17 -45 -42 -112 -55 -147 -14 -36 -34 -89 -46 -118
l-21 -53 79 2 79 2 33 101 c19 55 34 105 34 110 0 5 5 11 10 13 6 2 28 -49 49
-112 l39 -115 78 0 79 0 -21 53 c-12 28 -33 82 -47 119 -14 39 -29 65 -35 61
-6 -4 -7 -1 -3 6 5 7 -5 46 -20 87 l-29 74 -86 0 -86 0 -31 -83z"/>
<path d="M7170 3530 c-11 -7 0 -10 38 -10 33 0 51 4 47 10 -8 13 -65 13 -85 0z"/>
<path d="M7173 3490 c-15 -6 -24 -19 -25 -35 -6 -95 -4 -111 12 -127 17 -16
17 -15 15 10 -1 15 -7 37 -14 50 -12 23 -7 62 9 62 5 0 7 -12 6 -27 -4 -33 1
-46 15 -37 6 3 6 10 1 17 -15 19 -2 85 17 90 12 4 12 5 1 5 -8 0 -25 -3 -37
-8z"/>
<path d="M7238 3468 c-22 -7 -25 -12 -15 -22 6 -8 18 -11 24 -9 7 3 13 1 14
-3 0 -5 2 -19 5 -31 2 -16 -1 -23 -11 -23 -11 0 -12 -5 -5 -25 7 -20 6 -25 -5
-25 -8 0 -15 4 -15 10 0 5 -6 7 -14 4 -13 -5 -14 -14 -7 -69 1 -6 4 -6 9 1 4
6 21 17 37 25 30 14 30 15 30 97 0 86 -1 87 -47 70z"/>
<path d="M3040 3335 c-7 -8 -17 -12 -23 -8 -5 3 -7 2 -4 -4 11 -17 -118 -127
-137 -116 -6 3 -8 3 -4 -2 11 -11 -20 -37 -34 -29 -7 4 -10 4 -6 -1 9 -9 -22
-34 -84 -67 -45 -24 -46 -26 -32 -46 24 -35 43 -111 54 -218 18 -174 -3 -253
-87 -315 -30 -23 -53 -53 -73 -94 -43 -90 -120 -191 -178 -235 -39 -29 -54
-84 -42 -151 11 -62 42 -75 145 -64 57 6 65 9 65 27 0 23 80 135 133 186 l34
33 27 -39 c28 -40 73 -69 87 -55 4 4 11 35 16 68 7 53 12 61 37 74 16 7 77 59
135 115 203 193 243 227 294 250 55 24 141 117 154 165 7 27 -6 53 -28 58 -8
3 -7 0 4 -7 9 -6 17 -19 17 -30 0 -26 -139 -140 -171 -140 -17 0 20 39 54 57
26 13 28 19 25 56 -2 23 -5 44 -8 47 -3 3 -32 59 -65 124 -50 100 -74 134
-147 212 -49 51 -88 99 -88 107 0 13 -40 57 -52 57 -3 0 -11 -7 -18 -15z m16
-573 c7 -4 -19 -7 -56 -7 -38 0 -63 3 -57 7 15 10 99 10 113 0z m-180 -536 c3
-14 2 -32 -4 -41 -8 -15 -11 -14 -30 10 -29 37 -28 55 3 55 18 0 26 -7 31 -24z
m-357 -120 c25 -9 37 -21 43 -41 10 -40 4 -45 -53 -45 -81 0 -107 27 -79 81
12 22 39 23 89 5z"/>
<path d="M7295 3300 c-3 -5 -2 -10 4 -10 5 0 13 5 16 10 3 6 2 10 -4 10 -5 0
-13 -4 -16 -10z"/>
<path d="M1010 3283 c-65 -10 -170 -37 -213 -56 -48 -20 -48 -20 -42 -57 5
-32 2 -41 -24 -68 -21 -21 -31 -40 -31 -61 0 -29 23 -64 48 -72 19 -7 -4 -76
-37 -114 -39 -45 -42 -88 -6 -111 20 -13 25 -25 25 -59 0 -45 24 -79 82 -113
27 -16 28 -19 28 -94 0 -71 9 -94 25 -68 4 6 30 29 57 51 l51 40 41 -39 c45
-43 118 -92 138 -92 23 0 97 70 91 86 -3 9 0 12 9 9 8 -3 21 1 28 10 10 12 10
15 -1 16 -8 1 -3 4 11 8 14 4 25 13 25 21 0 8 9 18 20 21 11 3 19 11 17 18 -1
6 9 16 23 21 27 10 33 25 13 33 -7 3 -3 6 8 6 32 1 50 27 28 39 -15 8 -13 11
14 17 18 3 32 13 32 21 0 8 4 14 10 14 10 0 71 114 68 127 0 5 4 20 10 34 19
47 24 97 13 131 -8 25 -7 44 4 82 8 27 13 52 10 55 -3 2 -20 5 -38 5 -31 1
-32 2 -32 46 l0 45 -52 17 c-28 10 -80 22 -115 28 -60 9 -284 12 -338 3z m250
-47 c0 -6 -9 -12 -20 -12 -12 0 -20 7 -20 17 0 12 6 16 20 12 11 -3 20 -11 20
-17z m-230 -18 c0 -5 -4 -8 -10 -8 -5 0 -10 10 -10 23 0 18 2 19 10 7 5 -8 10
-18 10 -22z m123 18 c4 -9 -2 -13 -19 -13 -14 0 -24 5 -24 13 0 8 9 14 19 14
10 0 21 -6 24 -14z m193 -23 c-10 -10 -19 5 -10 18 6 11 8 11 12 0 2 -7 1 -15
-2 -18z m-423 -3 c3 -11 1 -20 -4 -20 -5 0 -9 9 -9 20 0 11 2 20 4 20 2 0 6
-9 9 -20z m27 5 c0 -8 -2 -15 -4 -15 -2 0 -6 7 -10 15 -3 8 -1 15 4 15 6 0 10
-7 10 -15z m520 -4 c0 -3 -5 -13 -10 -21 -8 -13 -10 -12 -10 4 0 15 -3 16 -15
6 -12 -10 -15 -10 -15 2 0 8 3 17 6 20 7 7 44 -2 44 -11z m-620 -35 c0 -5 -3
-6 -7 -3 -3 4 -12 2 -18 -3 -9 -8 -14 -6 -19 5 -3 9 0 15 9 15 8 0 15 6 15 13
0 14 20 -12 20 -27z m430 4 c35 -7 26 -8 -44 -5 -49 2 -91 7 -94 10 -8 8 87 5
138 -5z m-202 -7 c-10 -2 -26 -2 -35 0 -10 3 -2 5 17 5 19 0 27 -2 18 -5z
m-75 -10 c-7 -2 -19 -2 -25 0 -7 3 -2 5 12 5 14 0 19 -2 13 -5z m397 -3 c20
-6 21 -8 5 -8 -11 0 -33 4 -50 8 -27 7 -27 8 -5 8 14 0 36 -4 50 -8z m-310
-31 c0 -29 -58 -82 -109 -99 -48 -15 -68 -34 -50 -46 8 -5 10 -3 5 7 -4 8 -1
5 8 -5 8 -10 13 -23 9 -29 -3 -6 -2 -7 4 -4 6 4 18 -9 28 -27 10 -19 35 -43
54 -55 27 -15 31 -21 16 -21 -44 0 -101 37 -131 84 -35 55 -51 58 -59 12 -5
-22 -14 -36 -26 -39 -23 -6 -23 -5 -3 101 8 46 13 86 11 89 -3 2 -19 -3 -37
-12 -27 -14 -31 -20 -25 -46 5 -22 3 -29 -8 -29 -22 0 -39 26 -32 49 8 27 155
100 155 77 0 -2 3 -13 6 -23 5 -15 4 -16 -6 -3 -9 12 -11 9 -6 -17 3 -20 1
-33 -7 -36 -8 -3 -5 -7 6 -12 26 -11 99 15 93 32 -3 7 0 12 7 10 7 -1 13 12
15 31 3 30 6 32 43 32 33 0 39 -3 39 -21z m275 -16 c-4 -10 -10 -28 -13 -41
-4 -20 -2 -22 21 -17 32 8 38 -13 20 -75 -24 -80 -51 -84 -33 -5 6 26 8 50 6
53 -10 9 -38 -29 -32 -44 4 -10 2 -13 -6 -8 -8 5 -9 2 -5 -9 9 -24 -9 -67 -28
-67 -8 0 -15 3 -15 8 0 6 38 179 46 210 2 6 13 12 25 12 16 0 19 -4 14 -17z
m135 0 c0 -7 11 -13 26 -13 35 0 26 -24 -12 -30 -19 -3 -33 -15 -42 -33 -17
-35 -9 -61 16 -53 9 3 4 -5 -13 -19 -46 -38 -59 -33 -50 18 4 23 9 60 11 82 4
40 21 62 49 62 8 0 15 -6 15 -14z m-328 -20 c-6 -2 -10 -8 -7 -13 3 -4 -4 -10
-15 -13 -12 -3 -20 0 -20 7 0 18 11 26 34 25 12 0 15 -3 8 -6z m-207 -23 c-3
-5 -12 -10 -18 -10 -7 0 -6 4 3 10 19 12 23 12 15 0z m-151 -94 c-20 -102 -29
-108 -14 -10 12 79 20 108 27 101 2 -3 -3 -44 -13 -91z m470 85 c3 -5 -1 -28
-10 -52 -8 -24 -13 -52 -10 -62 2 -9 0 -15 -5 -11 -5 3 -9 -3 -9 -12 0 -26
-30 -54 -57 -54 -18 0 -28 -9 -39 -36 -8 -19 -12 -45 -8 -56 4 -14 3 -18 -5
-13 -8 4 -10 -1 -6 -17 10 -44 -37 -76 -81 -56 -24 11 -26 15 -19 62 7 53 16
66 51 66 18 0 34 17 34 36 0 2 -16 10 -35 18 -19 8 -35 20 -35 25 0 14 6 14
30 -1 16 -10 25 -9 50 6 23 13 34 15 44 7 16 -13 42 -5 50 15 4 10 -3 14 -23
14 -37 0 -38 3 -32 52 5 37 11 45 41 60 39 19 66 22 74 9z m-137 -60 c-1 -27
-5 -47 -8 -45 -4 2 -9 -5 -12 -16 -3 -11 -11 -20 -19 -20 -29 0 10 128 39 130
1 0 1 -22 0 -49z m-47 28 c0 -5 -4 -8 -8 -5 -5 3 -9 -7 -9 -22 -1 -36 -20 -82
-34 -82 -8 0 -10 13 -5 40 4 25 2 40 -4 40 -5 0 -10 -5 -10 -11 0 -5 -5 -7
-10 -4 -7 4 -9 -2 -5 -18 4 -15 2 -28 -6 -33 -9 -5 -11 -2 -6 9 4 10 2 16 -6
14 -7 -1 -13 11 -15 30 -3 30 -1 32 40 41 59 14 78 14 78 1z m440 -88 c0 -30
-6 -42 -24 -54 -18 -12 -23 -23 -21 -53 4 -60 -10 -74 -77 -74 -45 0 -58 3
-58 15 0 9 10 19 23 24 27 11 51 37 52 60 1 9 2 26 3 38 2 19 72 81 95 83 4 0
7 -17 7 -39z m-630 -63 c15 -13 35 -27 43 -33 14 -9 15 -15 4 -47 -6 -20 -22
-42 -34 -49 -24 -13 -40 -41 -19 -33 8 3 17 0 22 -7 5 -8 3 -10 -6 -4 -9 5
-11 4 -6 -4 4 -6 12 -9 17 -6 5 4 19 -1 31 -9 14 -10 44 -16 78 -16 53 -1 54
-1 30 -15 -46 -26 -112 -19 -169 19 -56 38 -70 34 -74 -23 -2 -34 -9 -38 -26
-18 -13 16 11 170 30 193 20 25 26 15 23 -37 -2 -49 -2 -50 17 -33 10 9 19 13
19 8 1 -5 8 4 16 20 16 28 15 30 -14 59 l-31 31 -41 -19 c-23 -10 -46 -27 -52
-38 -8 -15 -7 -18 3 -12 9 6 11 3 6 -9 -4 -10 -7 -20 -7 -22 0 -2 -9 -4 -19
-4 -23 0 -34 25 -21 50 9 17 121 80 143 80 5 0 22 -10 37 -22z m510 9 c0 -8
-3 -17 -7 -21 -5 -4 -8 -13 -8 -19 0 -7 -8 -13 -17 -15 -12 -2 -18 3 -18 15
-1 17 -1 17 -14 1 -7 -10 -17 -14 -21 -10 -4 4 -5 -6 -1 -21 4 -19 3 -26 -4
-22 -6 4 -9 -3 -7 -17 1 -17 -4 -24 -21 -26 -20 -3 -23 0 -18 16 4 11 10 39
14 63 7 38 11 43 47 55 54 16 75 17 75 1z m-145 -59 c-4 -18 -8 -33 -9 -33
-41 -13 -60 -22 -63 -32 -3 -9 4 -11 29 -6 30 6 32 5 19 -10 -13 -16 -81 -41
-89 -32 -2 2 0 30 4 62 9 56 10 58 49 69 64 20 68 18 60 -18z m-251 3 c3 -5
-1 -12 -10 -15 -22 -9 -24 -8 -24 9 0 16 25 21 34 6z m-234 -112 c-17 -81 -24
-68 -8 16 6 38 14 62 16 56 2 -7 -1 -40 -8 -72z m230 56 c0 -8 -3 -15 -7 -15
-5 0 -8 -14 -9 -30 -1 -37 -6 -42 -28 -34 -13 5 -15 14 -10 43 4 20 9 39 11
44 8 13 43 7 43 -8z m250 -89 c-107 -32 -213 -85 -303 -150 -43 -31 -80 -56
-83 -56 -2 0 -4 13 -4 30 0 24 8 35 43 57 99 63 317 142 392 142 20 0 6 -8
-45 -23z m-10 -36 c0 -5 15 -10 33 -11 29 -1 28 -2 -13 -12 l-45 -10 45 -13
45 -12 -40 -1 c-57 -2 -75 -16 -33 -26 l33 -9 -37 -3 c-41 -5 -52 -22 -15 -24
15 -1 10 -5 -18 -14 -38 -11 -39 -12 -16 -20 l24 -7 -23 -13 c-17 -9 -19 -14
-9 -17 11 -5 9 -10 -7 -28 -20 -20 -23 -21 -50 -7 -40 21 -124 96 -123 110 0
8 2 8 6 -1 3 -9 16 -4 41 16 37 29 181 112 195 112 4 0 7 -4 7 -10z"/>
<path d="M1071 3124 c0 -11 3 -14 6 -6 3 7 2 16 -1 19 -3 4 -6 -2 -5 -13z"/>
<path d="M1230 3029 c0 -5 -5 -7 -11 -3 -6 4 -9 -1 -8 -12 2 -11 0 -25 -4 -31
-5 -8 -3 -13 7 -13 17 0 21 5 30 43 4 16 2 27 -4 27 -5 0 -10 -5 -10 -11z"/>
<path d="M1161 2894 c0 -11 3 -14 6 -6 3 7 2 16 -1 19 -3 4 -6 -2 -5 -13z"/>
<path d="M1066 2768 c-3 -17 -2 -36 4 -42 13 -13 20 -5 27 38 7 48 -21 52 -31
4z"/>
<path d="M1484 2913 c-12 -12 -13 -18 -4 -21 16 -6 45 24 32 32 -6 3 -18 -2
-28 -11z"/>
<path d="M1437 2824 c-13 -13 -7 -24 14 -24 11 0 19 5 17 12 -5 14 -22 21 -31
12z"/>
<path d="M1220 2814 c0 -8 5 -12 10 -9 6 3 10 10 10 16 0 5 -4 9 -10 9 -5 0
-10 -7 -10 -16z"/>
<path d="M1134 2587 c-33 -19 -74 -54 -74 -64 0 -13 89 -98 95 -91 3 3 5 42 3
86 -3 78 -4 80 -24 69z"/>
<path d="M7030 3270 c-9 -6 -10 -10 -3 -10 6 0 15 5 18 10 8 12 4 12 -15 0z"/>
<path d="M7030 3220 c-11 -11 -20 -26 -20 -33 0 -17 32 -47 49 -47 22 0 52 21
45 31 -3 6 -11 3 -19 -8 -11 -14 -18 -16 -32 -7 -10 6 -19 19 -21 28 -5 22 17
48 35 42 7 -3 13 -1 13 4 0 17 -29 11 -50 -10z"/>
<path d="M7150 3228 c0 -23 12 -58 19 -58 4 0 5 16 3 35 -4 32 -22 51 -22 23z"/>
<path d="M7206 3212 c-10 -19 -15 -36 -13 -39 3 -2 8 5 12 16 3 12 10 21 15
21 5 0 12 -9 15 -21 4 -11 9 -18 11 -16 3 3 -1 20 -9 38 l-14 34 -17 -33z"/>
<path d="M7276 3208 c-7 -36 4 -52 30 -45 16 4 16 5 -3 6 -19 1 -21 4 -13 31
5 16 5 32 0 35 -4 2 -10 -10 -14 -27z"/>
<path d="M7116 3200 c8 -43 14 -51 14 -19 0 13 -5 31 -10 39 -7 11 -8 5 -4
-20z"/>
<path d="M3609 3215 c-3 -2 -1 -32 3 -67 15 -118 21 -850 9 -1000 -7 -77 -15
-146 -18 -154 -4 -12 27 -14 192 -14 l198 0 -7 43 c-3 23 -10 161 -16 307 -10
250 -2 653 16 828 l7 62 -190 0 c-104 0 -192 -2 -194 -5z"/>
<path d="M4113 3174 c3 -27 11 -169 18 -315 10 -215 10 -317 0 -525 -7 -143
-15 -280 -18 -306 l-5 -48 194 0 193 0 -12 118 c-6 64 -12 189 -12 277 l-1
160 137 0 c134 0 140 1 204 31 129 61 191 145 211 281 26 182 -47 301 -214
350 -41 12 -126 17 -377 20 l-323 5 5 -48z m476 -120 c60 -24 74 -53 79 -161
8 -171 -42 -258 -160 -276 l-38 -6 0 230 0 229 40 0 c22 0 57 -7 79 -16z"/>
<path d="M5089 3216 c-2 -3 1 -53 7 -113 12 -110 11 -948 -2 -1064 l-6 -56
375 0 374 -1 7 61 c8 80 8 127 -1 127 -5 0 -44 -7 -88 -16 -108 -21 -275 -21
-291 0 -26 36 -25 711 2 994 l7 72 -190 0 c-104 0 -192 -2 -194 -4z"/>
<path d="M7342 3191 c-7 -19 -10 -36 -7 -39 6 -7 26 49 22 62 -2 6 -9 -5 -15
-23z"/>
<path d="M7510 3196 c0 -2 8 -10 18 -17 15 -13 16 -12 3 4 -13 16 -21 21 -21
13z"/>
<path d="M7401 3153 c-9 -20 -9 -29 0 -37 9 -8 10 -8 5 1 -4 7 1 24 10 38 9
14 12 25 7 25 -5 0 -15 -12 -22 -27z"/>
<path d="M7565 3150 c10 -11 20 -20 23 -20 3 0 -3 9 -13 20 -10 11 -20 20 -23
20 -3 0 3 -9 13 -20z"/>
<path d="M6853 3151 c1 -3 -4 -16 -11 -28 -17 -32 -10 -29 15 5 15 20 17 29 8
29 -8 0 -13 -3 -12 -6z"/>
<path d="M6931 3135 c0 -5 8 -21 18 -35 16 -20 21 -22 35 -11 9 7 16 19 15 25
0 7 -2 6 -6 -1 -7 -20 -29 -15 -46 10 -9 12 -16 18 -16 12z"/>
<path d="M7140 3131 c0 -5 -9 -7 -20 -4 -12 3 -20 0 -20 -6 0 -7 -4 -9 -10 -6
-21 13 -114 -49 -103 -69 3 -6 2 -8 -2 -3 -12 10 -46 -23 -38 -37 3 -6 3 -8
-2 -4 -11 11 -38 -29 -29 -44 4 -6 3 -8 -4 -4 -17 10 -45 -101 -40 -159 5 -58
52 -170 68 -160 6 4 10 3 9 -2 -4 -24 2 -35 18 -29 10 4 14 4 10 0 -9 -10 51
-66 63 -59 6 3 10 1 10 -5 0 -6 5 -8 10 -5 6 3 10 1 10 -6 0 -7 3 -9 7 -6 3 4
12 2 20 -4 7 -6 22 -9 33 -6 11 3 18 2 15 -3 -7 -11 59 -20 113 -14 62 7 161
55 199 98 114 124 118 313 10 434 -16 17 -23 19 -30 10 -6 -9 -7 -8 -3 4 3 11
-4 24 -22 36 -39 28 -104 54 -119 47 -8 -2 -11 0 -8 5 4 6 -22 10 -69 10 -42
0 -76 -4 -76 -9z m69 -116 c34 -30 26 -85 -16 -106 -31 -16 -32 -17 -16 -40 9
-13 17 -25 18 -26 0 -1 23 4 50 12 34 10 64 12 95 7 44 -7 45 -8 48 -47 l2
-40 -15 27 c-33 60 -110 65 -164 11 -12 -13 -12 -14 0 -11 8 2 27 -7 43 -20
l29 -22 -31 0 c-17 0 -34 5 -37 10 -23 37 -42 -36 -26 -96 6 -22 20 -49 31
-61 18 -20 21 -21 51 -6 23 12 34 12 42 4 9 -9 8 -14 -3 -21 -12 -8 -10 -10 8
-10 13 0 36 14 53 32 32 36 34 35 18 -11 -13 -37 -39 -46 -109 -38 -126 15
-180 102 -131 212 l21 48 -22 34 c-15 22 -31 33 -47 33 -23 0 -24 -1 -18 -65
l6 -65 -30 0 c-26 0 -29 2 -19 19 13 26 13 217 -1 243 -11 20 -9 20 69 17 62
-3 85 -9 101 -24z m305 -91 c3 -8 2 -12 -4 -9 -6 3 -10 10 -10 16 0 14 7 11
14 -7z m-418 -382 c-2 -2 -14 1 -25 8 -12 6 -25 9 -30 6 -4 -3 -8 1 -8 8 0 12
7 11 34 -2 18 -8 31 -17 29 -20z"/>
<path d="M7080 2921 c0 -22 3 -23 36 -18 35 6 64 22 64 37 0 4 -22 7 -50 6
-46 -1 -50 -3 -50 -25z"/>
<path d="M7472 3098 l-2 -41 25 23 c27 25 35 40 10 20 -13 -11 -15 -8 -15 14
0 43 -17 29 -18 -16z"/>
<path d="M6789 3083 c-13 -16 -12 -17 4 -4 20 15 23 2 5 -19 -7 -8 -4 -7 7 2
13 13 16 21 9 28 -8 8 -15 5 -25 -7z"/>
<path d="M6896 3056 c10 -20 19 -34 22 -32 2 2 -1 13 -7 24 -9 17 -7 19 17 14
36 -6 18 14 -21 23 l-28 7 17 -36z"/>
<path d="M7514 3066 c-10 -8 -16 -17 -13 -20 3 -3 14 3 24 14 21 23 17 26 -11
6z"/>
<path d="M7666 2991 c64 -160 30 -352 -87 -484 -78 -89 -180 -142 -319 -163
l-85 -13 78 5 c96 6 168 32 254 91 47 32 64 40 60 26 -9 -25 74 68 96 109 l18
33 -20 -24 c-27 -30 -27 -21 0 31 34 67 49 129 49 209 0 79 -26 186 -54 224
-8 11 -4 -9 10 -44z m-51 -485 c-15 -20 -32 -36 -37 -36 -5 0 6 18 23 40 40
49 52 45 14 -4z"/>
<path d="M7530 3015 c-11 -13 -10 -14 4 -9 9 3 16 10 16 15 0 13 -6 11 -20 -6z"/>
<path d="M6820 3001 c0 -5 16 -11 35 -13 36 -4 47 5 19 16 -23 9 -54 7 -54 -3z"/>
<path d="M7558 2997 c-30 -12 -40 -31 -10 -20 22 8 59 33 47 32 -6 -1 -22 -6
-37 -12z"/>
<path d="M6721 2939 c-6 -18 -11 -41 -11 -51 0 -11 -4 -16 -10 -13 -13 8 -13
-108 0 -157 14 -51 41 -60 29 -10 -12 53 -11 183 2 221 6 18 9 34 6 37 -2 3
-10 -9 -16 -27z"/>
<path d="M6811 2961 c-9 -6 -4 -10 18 -13 33 -5 42 6 15 16 -19 7 -16 8 -33
-3z"/>
<path d="M7588 2938 c-16 -5 -28 -14 -28 -19 0 -4 8 -6 18 -2 14 5 15 3 5 -8
-17 -17 -17 -37 -1 -21 7 7 20 12 30 12 10 0 18 5 18 11 0 5 -4 8 -9 4 -5 -3
-12 -1 -16 5 -3 5 1 10 9 10 9 0 16 5 16 10 0 12 -6 12 -42 -2z"/>
<path d="M6790 2935 c0 -19 23 -35 50 -34 24 1 24 1 -4 9 -16 5 -33 15 -37 22
-5 7 -9 8 -9 3z"/>
<path d="M6756 2864 c-10 -26 -7 -32 22 -38 15 -4 35 -9 45 -12 9 -3 17 -1 17
5 0 6 -7 11 -15 11 -21 0 -19 8 8 31 l22 20 -24 -11 c-17 -9 -26 -9 -34 -1
-16 16 -34 14 -41 -5z m34 -14 c0 -5 -7 -10 -15 -10 -8 0 -15 5 -15 10 0 6 7
10 15 10 8 0 15 -4 15 -10z"/>
<path d="M7625 2856 c-20 -31 -40 -34 -32 -6 3 11 1 20 -5 20 -5 0 -8 -12 -6
-27 4 -38 35 -43 48 -9 5 14 14 26 20 26 14 0 13 -13 -2 -28 -9 -9 -9 -12 0
-12 20 0 26 30 9 47 -13 14 -17 13 -32 -11z"/>
<path d="M3435 2860 c-3 -6 1 -7 9 -4 18 7 21 14 7 14 -6 0 -13 -4 -16 -10z"/>
<path d="M7733 2810 c0 -25 2 -35 4 -22 2 12 2 32 0 45 -2 12 -4 2 -4 -23z"/>
<path d="M7721 2745 c-1 -11 -4 -31 -6 -45 l-6 -25 11 25 c6 13 9 33 7 45 -4
19 -4 19 -6 0z"/>
<path d="M7698 2655 c-3 -11 -9 -29 -13 -40 -3 -11 1 -7 10 8 9 16 15 33 12
40 -2 6 -6 3 -9 -8z"/>
<path d="M6931 2522 c-15 -22 -17 -32 -9 -40 17 -17 48 -15 48 2 0 8 6 16 13
19 9 3 9 9 1 23 -17 28 -30 27 -53 -4z m49 -3 c0 -5 -7 -9 -15 -9 -15 0 -20
12 -9 23 8 8 24 -1 24 -14z m-22 -27 c2 -7 -3 -12 -12 -12 -9 0 -16 7 -16 16
0 17 22 14 28 -4z"/>
<path d="M7426 2527 c-16 -12 -16 -14 3 -39 23 -29 26 -38 11 -38 -6 0 -15 11
-20 25 -10 28 -31 32 -52 12 -7 -8 -20 -11 -28 -9 -11 4 -10 -1 4 -16 10 -12
16 -28 12 -37 -9 -25 -30 -12 -37 21 -5 27 -6 27 -12 8 -4 -12 -6 -28 -5 -35
2 -7 -5 -15 -14 -17 -14 -3 -18 3 -18 27 0 17 -4 31 -10 31 -11 0 -12 -15 -4
-47 4 -16 14 -23 30 -23 13 0 24 4 24 9 0 4 10 6 23 4 13 -3 29 2 36 11 7 8
20 12 28 9 12 -5 15 -2 10 9 -4 12 -1 14 13 11 24 -6 80 27 80 47 -1 12 -3 12
-11 -2 -12 -22 -29 -23 -29 -3 0 8 5 15 11 15 5 0 7 5 4 10 -5 8 -11 8 -20 0
-9 -7 -15 -7 -19 -1 -4 5 2 14 11 20 10 6 13 11 7 11 -5 0 -18 -6 -28 -13z"/>
<path d="M7017 2494 c-4 -4 -7 -23 -6 -43 l1 -36 9 33 c11 36 9 58 -4 46z"/>
<path d="M7050 2477 c0 -1 9 -19 19 -40 14 -28 20 -33 25 -21 8 21 8 26 -3 20
-5 -3 -12 5 -15 19 -4 14 -11 25 -16 25 -6 0 -10 -1 -10 -3z"/>
<path d="M6975 2460 c-3 -6 1 -7 9 -4 18 7 21 14 7 14 -6 0 -13 -4 -16 -10z"/>
<path d="M7107 2440 c8 -48 19 -57 19 -16 0 19 -3 33 -7 30 -4 -2 -10 2 -12 8
-3 7 -3 -3 0 -22z"/>
<path d="M7191 2418 c-6 -17 -9 -33 -7 -36 3 -2 8 8 12 23 l7 28 14 -27 c19
-36 29 -25 13 14 -16 38 -25 38 -39 -2z"/>
<path d="M7157 2410 c-3 -11 -1 -20 4 -20 5 0 9 9 9 20 0 11 -2 20 -4 20 -2 0
-6 -9 -9 -20z"/>
<path d="M7504 2404 c-18 -14 -18 -15 4 -4 12 6 22 13 22 15 0 8 -5 6 -26 -11z"/>
<path d="M870 2282 c14 -11 23 -22 20 -25 -3 -3 -30 0 -61 5 -38 7 -75 8 -115
1 -49 -9 -53 -11 -22 -12 47 -1 61 -21 16 -21 -42 0 -141 -25 -176 -45 -26
-14 -26 -15 18 -9 l45 6 -70 -35 c-39 -20 -89 -52 -110 -72 -22 -20 -29 -29
-15 -21 14 8 43 22 65 31 l40 16 -35 -30 c-19 -16 -37 -28 -41 -26 -3 2 -6 -1
-6 -8 0 -7 -11 -30 -25 -52 -14 -22 -29 -53 -32 -70 l-7 -30 19 30 c11 17 36
46 57 65 l36 35 -6 -30 c-4 -16 -9 -36 -11 -44 -7 -23 16 -90 41 -118 l24 -28
-8 32 c-8 29 -7 52 5 91 2 8 19 -3 44 -28 22 -22 45 -40 51 -40 7 0 8 -7 4
-17 -4 -10 -13 -49 -21 -88 -8 -38 -17 -78 -20 -87 -4 -14 0 -18 19 -18 22 0
26 6 32 45 3 25 11 43 16 40 5 -4 6 -11 3 -17 -4 -6 -2 -8 3 -5 14 9 47 -29
38 -43 -3 -6 -1 -9 7 -8 7 2 12 -2 11 -8 -1 -6 5 -11 13 -11 7 0 14 1 14 1 0
6 32 156 36 169 4 13 0 17 -19 17 -22 0 -26 -6 -31 -45 -4 -25 -12 -45 -18
-45 -5 0 -8 7 -5 15 4 8 1 17 -5 21 -7 5 -8 2 -4 -7 4 -8 -6 1 -23 19 -18 18
-29 38 -25 44 5 7 2 8 -7 3 -11 -6 -11 -5 -3 4 9 9 21 10 48 3 50 -14 53 1 6
32 -40 26 -56 55 -22 41 74 -33 177 -30 179 4 1 11 -6 22 -15 24 -15 4 -15 5
1 6 9 0 17 6 17 11 0 6 -22 10 -49 10 -27 0 -62 5 -78 10 -27 10 -27 9 -8 -6
11 -9 43 -27 70 -40 l50 -24 -60 6 c-80 7 -126 31 -147 74 l-18 35 -1 -40 c0
-36 -1 -38 -10 -16 -5 14 -7 31 -5 38 3 7 1 13 -5 13 -6 0 -5 8 2 21 8 16 8
23 -1 29 -9 6 -6 14 10 30 l22 22 -22 -7 c-38 -12 -12 15 34 35 l41 18 -40 -4
c-36 -4 -38 -4 -15 7 14 6 52 17 85 24 47 10 53 13 27 14 -49 2 -29 21 21 21
23 -1 59 -7 80 -15 l39 -13 -23 24 -23 24 22 -3 c27 -4 66 -36 75 -60 4 -9 12
-16 19 -15 9 2 12 -6 10 -25 -1 -15 1 -27 5 -26 4 1 14 1 21 0 11 -1 11 -3 0
-14 -7 -7 -22 -19 -33 -26 -19 -12 -18 -12 5 -7 14 3 31 2 38 -3 13 -8 -6 -21
-61 -41 -16 -5 -25 -14 -22 -20 10 -17 51 -11 78 10 14 11 27 16 29 11 1 -6
20 -12 41 -14 21 -2 35 -2 32 1 -3 3 18 20 45 39 28 18 50 35 50 37 0 2 -26
-7 -57 -20 -61 -25 -128 -34 -88 -12 55 30 112 99 130 158 8 24 7 24 -18 -5
-14 -16 -40 -39 -58 -49 -32 -19 -32 -19 -25 0 17 43 17 73 2 102 -22 43 -33
46 -33 11 0 -43 -19 -59 -39 -31 -18 26 -56 47 -104 57 l-35 8 25 -21z"/>
<path d="M361 2004 c-129 -111 -99 -266 59 -299 35 -7 35 -7 -9 17 -50 27 -91
90 -91 140 0 39 23 91 61 139 17 21 29 39 27 39 -3 0 -23 -16 -47 -36z"/>
<path d="M7196 2005 c-4 -14 -11 -25 -16 -25 -6 0 -8 -11 -4 -24 5 -21 0 -27
-30 -41 -38 -18 -76 -62 -76 -88 0 -8 -7 -21 -17 -28 -9 -8 -22 -28 -29 -46
-11 -26 -23 -34 -71 -48 -32 -9 -71 -24 -86 -32 -16 -8 -31 -12 -33 -10 -8 7
78 54 124 69 33 10 42 18 42 35 0 12 8 27 18 32 61 36 -119 -24 -210 -70 l-57
-29 -3 -62 -3 -63 -48 -3 -47 -3 30 -25 c29 -25 30 -28 30 -115 0 -89 0 -90
30 -107 20 -11 35 -32 45 -61 54 -160 215 -333 393 -425 l34 -17 73 41 c88 51
185 134 244 209 42 53 121 202 121 227 0 6 14 17 30 24 28 12 30 16 30 64 0
29 -5 57 -12 64 -9 9 -9 12 0 12 7 0 12 12 12 27 0 16 11 39 27 55 l27 28 -42
0 c-46 0 -43 -4 -46 80 -2 41 -5 47 -41 67 -43 25 -181 79 -224 89 -23 6 -24
5 -9 -7 9 -8 18 -23 20 -33 2 -13 22 -25 61 -39 32 -12 72 -34 90 -50 l32 -29
-35 20 c-19 11 -63 28 -98 38 -53 15 -66 23 -78 48 -52 110 -98 166 -134 166
-21 0 -36 30 -20 40 7 4 3 13 -10 25 -11 10 -17 21 -15 26 3 4 1 10 -4 13 -5
3 -12 -5 -15 -19z m-53 -117 c-33 -37 -42 -62 -36 -104 5 -39 5 -39 -36 -50
-47 -13 -53 -2 -22 37 10 14 25 40 34 60 8 20 27 45 42 57 36 28 44 28 18 0z
m158 3 c35 -28 20 -32 -20 -4 -19 13 -27 23 -19 23 9 0 26 -9 39 -19z m-124
-71 c-1 -41 -6 -69 -12 -68 -14 4 -4 138 10 138 3 0 4 -32 2 -70z m3 -135 c0
-8 -7 -15 -15 -15 -21 0 -19 -20 3 -20 16 -1 16 -1 0 -14 -22 -16 -23 -26 -3
-26 8 0 15 -7 15 -15 0 -10 -11 -15 -35 -15 l-35 0 0 60 0 60 35 0 c24 0 35
-5 35 -15z m50 -29 c0 -35 4 -45 20 -49 18 -5 20 0 20 44 0 42 3 49 20 49 15
0 20 -7 21 -27 2 -25 2 -25 6 -5 3 16 10 22 24 20 11 -2 20 -6 19 -10 0 -5 0
-28 0 -53 0 -38 -3 -45 -20 -45 -14 0 -20 7 -21 23 l-2 22 -4 -22 c-4 -21 -10
-23 -64 -23 l-59 0 0 60 c0 53 2 60 20 60 17 0 20 -7 20 -44z m-143 22 c14
-20 16 -68 3 -84 -7 -8 -30 -14 -51 -14 -39 0 -39 0 -39 40 0 31 -4 40 -17 41
-20 1 52 27 78 28 9 1 21 -5 26 -11z m348 -7 c3 -5 1 -12 -5 -16 -5 -3 -10
-22 -10 -41 0 -27 -4 -34 -20 -34 -17 0 -20 7 -20 50 0 46 2 50 24 50 14 0 27
-4 31 -9z m-594 -131 c25 -14 25 -50 -1 -57 -30 -8 -35 -6 -42 19 -5 19 -6 17
-7 -12 -1 -19 -4 -52 -7 -72 -4 -24 -3 -38 4 -38 6 0 12 12 14 28 2 19 9 28
26 30 18 3 22 -1 22 -26 0 -48 -73 -98 -105 -72 -11 9 -15 36 -15 99 0 54 -5
92 -12 99 -9 9 1 12 46 12 31 0 66 -5 77 -10z m138 -51 c7 -34 15 -67 17 -74
3 -7 -5 -14 -21 -17 -17 -4 -28 -1 -32 8 -6 16 -33 7 -33 -11 0 -14 -37 -31
-46 -22 -3 3 2 42 10 87 9 45 16 84 16 86 0 2 17 4 39 4 l38 0 12 -61z m141
47 c21 -26 8 -60 -27 -71 -25 -7 -33 -15 -33 -32 0 -18 -6 -23 -25 -23 -24 0
-25 2 -25 70 l0 70 49 0 c30 0 53 -5 61 -14z m70 -51 c0 -63 -1 -65 -25 -65
-24 0 -25 2 -25 65 0 63 1 65 25 65 24 0 25 -2 25 -65z m120 49 c0 -8 -4 -12
-10 -9 -6 4 -10 -15 -10 -49 0 -56 0 -56 -30 -56 -29 0 -30 1 -30 50 0 28 -4
50 -10 50 -5 0 -10 7 -10 15 0 11 12 15 50 15 39 0 50 -4 50 -16z m120 -41 c6
-32 13 -63 15 -70 7 -21 -15 -25 -42 -8 -18 12 -28 14 -36 6 -6 -6 -19 -11
-29 -11 -21 0 -23 18 -7 90 11 50 11 50 49 50 l39 0 11 -57z m82 -12 c-4 -62
-2 -69 17 -74 12 -3 21 -13 21 -22 0 -17 -9 -16 -67 6 -21 8 -23 15 -23 84 l0
75 28 0 28 0 -4 -69z m196 55 c-10 -7 -18 -23 -18 -35 0 -16 -6 -21 -25 -21
-15 0 -25 6 -25 14 0 8 -4 18 -10 21 -6 4 -10 -5 -10 -19 0 -14 5 -26 12 -26
6 0 22 -10 35 -22 29 -27 33 -102 6 -112 -41 -16 -132 49 -105 76 13 13 52 0
52 -18 0 -8 5 -14 10 -14 22 0 7 36 -23 55 -26 16 -33 28 -35 59 -4 49 6 56
88 56 56 -1 63 -2 48 -14z m-388 -196 c0 -5 -4 -10 -10 -10 -5 0 -10 5 -10 10
0 6 5 10 10 10 6 0 10 -4 10 -10z m16 -75 c10 -21 14 -45 10 -60 -7 -28 -96
-122 -96 -101 0 7 9 21 21 32 12 10 30 31 41 46 18 26 18 30 3 73 -8 25 -15
48 -15 51 0 14 21 -11 36 -41z m61 23 c-3 -8 -6 -5 -6 6 -1 11 2 17 5 13 3 -3
4 -12 1 -19z m-297 -38 c-10 -35 -9 -46 6 -68 10 -15 25 -32 34 -39 10 -7 20
-22 23 -34 l6 -21 -23 21 c-12 12 -25 19 -28 15 -4 -3 -17 2 -31 11 -23 15
-26 15 -41 0 -9 -9 -16 -22 -16 -29 0 -8 -6 -19 -14 -25 -12 -10 -17 -8 -26 8
-9 17 -8 20 5 15 16 -7 20 1 30 58 l6 38 27 -26 c35 -33 62 -48 62 -34 0 6
-11 15 -24 21 -33 15 -38 55 -14 102 24 48 33 42 18 -13z m53 10 c3 -11 3 -20
1 -20 -2 0 -8 9 -14 20 -6 11 -7 20 -2 20 6 0 12 -9 15 -20z m33 -7 c-7 -7
-26 7 -26 19 0 6 6 6 15 -2 9 -7 13 -15 11 -17z m69 8 c-3 -6 -11 -11 -17 -11
-6 0 -6 6 2 15 14 17 26 13 15 -4z m35 15 c0 -3 -4 -8 -10 -11 -5 -3 -10 -1
-10 4 0 6 5 11 10 11 6 0 10 -2 10 -4z m-290 -10 c0 -2 -16 -13 -35 -25 -19
-11 -35 -16 -35 -11 0 5 12 16 28 24 27 15 42 19 42 12z m467 -21 l28 -26 -37
22 c-38 21 -46 29 -29 29 6 0 23 -11 38 -25z m-465 -27 c-7 -7 -12 -8 -12 -2
0 14 12 26 19 19 2 -3 -1 -11 -7 -17z m115 -10 c-3 -7 -5 -2 -5 12 0 14 2 19
5 13 2 -7 2 -19 0 -25z m313 12 c0 -5 -7 -7 -15 -4 -8 4 -12 10 -9 15 6 11 24
2 24 -11z m-241 -27 l19 -38 22 38 c12 20 26 34 31 31 12 -7 11 -54 -1 -54 -5
0 -10 -6 -10 -13 0 -9 -14 -13 -40 -12 -23 0 -40 5 -40 12 0 6 -5 13 -12 15
-10 4 -4 58 7 58 2 0 13 -17 24 -37z m110 -7 c-9 -8 -10 -7 -5 7 3 10 7 24 7
30 1 7 3 4 6 -7 3 -10 -1 -23 -8 -30z m281 16 c0 -5 -7 -17 -15 -28 -14 -18
-14 -17 -4 9 12 27 19 34 19 19z m-650 -16 c0 -8 3 -22 7 -31 6 -16 5 -16 -20
0 -15 10 -24 22 -20 31 7 18 33 18 33 0z m464 -17 c2 -13 5 -35 5 -48 1 -18 5
-22 21 -18 17 4 18 2 10 -14 -9 -16 -14 -17 -30 -6 -11 6 -20 19 -20 28 0 9
-7 22 -15 29 -11 9 -21 8 -47 -10 -22 -15 -17 -8 17 24 27 25 50 44 52 43 1
-2 5 -14 7 -28z m126 18 c0 -8 -9 -22 -19 -31 -19 -18 -20 -17 -16 10 2 16 4
30 4 32 3 9 31 -1 31 -11z m-629 -54 c52 -86 185 -204 287 -257 33 -17 33 -17
99 20 62 35 203 162 252 229 l22 30 -18 -35 c-41 -78 -222 -237 -307 -270 -53
-20 -280 164 -345 281 -28 50 -20 51 10 2z m350 -82 c-15 -26 -47 -27 -61 -2
-14 27 -14 26 18 28 23 1 24 1 7 -7 -19 -8 -19 -9 3 -9 14 -1 22 5 22 16 0 12
3 14 11 6 8 -8 8 -17 0 -32z"/>
<path d="M7042 1635 c0 -16 2 -22 5 -12 2 9 2 23 0 30 -3 6 -5 -1 -5 -18z"/>
<path d="M6921 1478 c-1 -16 4 -28 9 -28 12 0 12 8 0 35 -8 18 -9 17 -9 -7z"/>
<path d="M7060 1506 c0 -9 5 -16 10 -16 6 0 10 4 10 9 0 6 -4 13 -10 16 -5 3
-10 -1 -10 -9z"/>
<path d="M7370 1481 c0 -6 5 -13 10 -16 6 -3 10 1 10 9 0 9 -4 16 -10 16 -5 0
-10 -4 -10 -9z"/>
<path d="M818 1993 c6 -2 18 -2 25 0 6 3 1 5 -13 5 -14 0 -19 -2 -12 -5z"/>
<path d="M860 1945 c-7 -33 -14 -63 -17 -67 -2 -5 5 -8 16 -8 17 0 21 6 21 30
0 30 15 41 23 18 3 -10 8 -10 22 2 16 14 17 13 11 -18 -6 -25 -4 -32 8 -32 9
0 16 3 16 8 1 4 7 33 14 65 15 61 12 63 -32 23 l-23 -20 -23 29 -24 29 -12
-59z"/>
<path d="M994 1973 c-3 -16 -10 -43 -15 -62 -5 -19 -6 -37 -4 -40 3 -2 5 1 5
9 0 9 4 9 13 2 17 -13 78 -21 70 -8 -4 5 1 7 11 3 10 -4 15 -3 11 4 -4 5 -2
15 3 22 5 7 13 32 17 56 10 59 -13 51 -32 -11 -13 -47 -30 -62 -52 -49 -9 6
-10 20 -5 46 4 26 9 33 15 23 5 -7 9 -8 9 -2 0 12 -20 34 -32 34 -4 0 -10 -12
-14 -27z"/>
<path d="M1117 1963 c-4 -21 -9 -50 -13 -65 -5 -21 -3 -28 9 -28 9 0 18 13 22
30 5 23 10 28 19 21 9 -7 16 -7 25 2 11 10 12 6 9 -20 -4 -26 -1 -33 12 -33
13 0 19 12 24 43 4 23 10 53 13 66 l6 24 -37 -28 c-33 -25 -41 -25 -36 0 1 6
-2 7 -6 2 -4 -4 -15 0 -24 8 -16 14 -18 13 -23 -22z"/>
<path d="M1241 1943 c-6 -31 -11 -60 -11 -65 0 -5 36 -8 79 -6 44 1 77 6 75
10 -3 4 6 8 20 8 14 0 26 -4 26 -10 0 -5 7 -10 15 -10 18 0 18 10 2 75 -10 39
-18 51 -35 53 -18 3 -22 -1 -20 -20 2 -14 -2 -22 -9 -21 -7 2 -10 -3 -8 -10 3
-6 -3 -23 -13 -35 l-18 -24 3 48 c4 54 -4 64 -58 64 -36 0 -36 0 -48 -57z m79
17 c0 -5 -12 -10 -26 -10 -14 0 -23 4 -19 10 3 6 15 10 26 10 10 0 19 -4 19
-10z m100 -30 c0 -5 -5 -10 -11 -10 -5 0 -7 5 -4 10 3 6 8 10 11 10 2 0 4 -4
4 -10z m-100 -20 c0 -5 -14 -10 -31 -10 -17 0 -28 4 -24 10 3 6 17 10 31 10
13 0 24 -4 24 -10z"/>
<path d="M1491 1963 c-22 -89 -22 -93 -6 -93 9 0 18 12 22 30 3 17 9 30 12 30
4 0 5 16 3 35 -5 46 -19 45 -31 -2z"/>
<path d="M1144 1898 c-4 -5 -3 -12 0 -15 3 -4 6 -1 6 5 0 6 7 9 15 6 8 -4 15
-2 15 3 0 12 -29 13 -36 1z"/>
<path d="M843 1823 c-35 -2 -63 -7 -63 -11 0 -4 -9 -44 -19 -89 l-19 -83 62 0
c53 0 67 4 95 28 26 21 35 38 41 74 4 26 4 46 1 44 -9 -4 -40 31 -33 38 3 3 3
5 1 4 -2 -1 -32 -3 -66 -5z m51 -65 c16 -26 -22 -72 -64 -76 l-33 -3 7 42 c4
23 9 46 12 51 9 15 66 4 78 -14z"/>
<path d="M1406 1819 c2 -4 -5 -14 -16 -24 -26 -23 -25 -50 1 -68 15 -11 17
-16 7 -20 -7 -3 3 -5 22 -4 40 2 58 -16 21 -21 -25 -4 -73 16 -66 27 2 4 -1
13 -6 21 -7 11 -8 7 -5 -12 3 -15 0 -30 -5 -34 -6 -3 -8 -12 -5 -19 3 -8 1
-16 -5 -19 -5 -2 -4 -3 3 -2 7 1 32 -3 56 -10 23 -7 40 -9 37 -4 -6 9 10 14
42 13 7 0 11 4 10 11 -1 6 3 10 9 9 8 -1 10 6 6 19 -3 12 -1 19 4 15 5 -3 10
3 10 13 0 11 -2 17 -4 15 -3 -2 -11 2 -19 10 -8 8 -23 15 -33 15 -26 0 -50 10
-50 22 0 6 7 7 16 4 8 -3 12 -2 9 4 -9 14 11 12 35 -2 16 -10 23 -10 35 3 14
14 14 17 2 28 -15 12 -118 21 -111 10z"/>
<path d="M545 1780 c-4 -25 -11 -38 -17 -33 -7 3 -8 1 -4 -5 9 -16 -4 -83 -15
-76 -5 3 -6 -2 -3 -10 3 -9 17 -16 29 -16 21 0 25 7 35 58 6 31 15 72 20 90 8
29 6 32 -15 32 -19 0 -24 -7 -30 -40z"/>
<path d="M954 1734 c-13 -64 -20 -82 -26 -68 -7 18 -8 18 -5 -1 1 -13 11 -21
28 -23 24 -3 26 1 46 88 l20 90 -22 0 c-20 0 -24 -9 -41 -86z"/>
<path d="M1074 1805 c7 -19 -3 -47 -15 -39 -5 3 -9 2 -8 -3 3 -17 -2 -29 -22
-53 -11 -14 -18 -19 -14 -12 3 6 1 12 -5 12 -7 0 -9 -8 -5 -19 3 -11 1 -22 -5
-26 -18 -11 -11 -25 14 -25 13 0 26 7 30 15 3 9 19 15 41 15 24 0 35 -4 35
-15 0 -9 10 -15 26 -15 19 0 24 4 20 18 -2 9 -7 33 -11 52 -19 100 -24 110
-56 110 -24 0 -30 -4 -25 -15z m36 -86 c0 -5 -7 -9 -15 -9 -9 0 -12 6 -9 15 6
15 24 11 24 -6z"/>
<path d="M1197 1738 c-9 -46 -17 -86 -17 -90 0 -14 40 -9 40 5 0 8 4 7 11 -3
8 -12 9 -10 4 8 -4 13 -4 35 0 49 l6 25 34 -38 c19 -22 33 -44 31 -50 -2 -6 2
-11 9 -11 9 0 21 31 34 89 25 109 26 100 -1 96 -17 -2 -25 -14 -34 -48 -10
-37 -20 -49 -15 -17 1 5 -3 6 -8 3 -12 -8 -42 34 -34 47 3 6 1 7 -5 3 -6 -3
-13 -2 -17 4 -14 22 -22 7 -38 -72z"/>
<path d="M1460 1770 c0 -5 5 -10 11 -10 5 0 7 5 4 10 -3 6 -8 10 -11 10 -2 0
-4 -4 -4 -10z"/>
<path d="M508 1623 c7 -3 16 -2 19 1 4 3 -2 6 -13 5 -11 0 -14 -3 -6 -6z"/>
<path d="M558 1623 c12 -2 32 -2 45 0 12 2 2 4 -23 4 -25 0 -35 -2 -22 -4z"/>
<path d="M788 1623 c12 -2 30 -2 40 0 9 3 -1 5 -23 4 -22 0 -30 -2 -17 -4z"/>
<path d="M948 1623 c17 -2 47 -2 65 0 17 2 3 4 -33 4 -36 0 -50 -2 -32 -4z"/>
<path d="M1138 1623 c18 -2 45 -2 60 0 15 2 0 4 -33 4 -33 0 -45 -2 -27 -4z"/>
<path d="M2780 1440 c-7 -12 -21 -20 -37 -20 l-26 0 21 -23 c32 -33 28 -47
-13 -47 -52 0 -97 22 -133 66 l-32 39 0 -238 c0 -258 2 -250 -58 -281 l-32
-17 0 -83 c0 -84 10 -111 41 -104 7 2 15 -6 17 -17 2 -11 10 -27 17 -35 7 -8
20 -52 29 -98 30 -160 116 -261 301 -352 144 -70 159 -71 267 -22 223 103 318
207 347 377 13 77 47 158 63 149 17 -11 48 26 38 45 -5 10 -5 33 0 54 10 46
-6 95 -35 103 -11 4 -28 15 -37 25 -16 16 -18 43 -18 254 l0 236 -32 -37 c-18
-20 -47 -43 -65 -50 -34 -15 -113 -19 -113 -7 0 4 12 20 27 35 l27 28 -28 0
c-19 0 -29 6 -33 20 -7 25 -14 25 -35 3 -46 -49 -69 -58 -180 -68 -81 -8 -194
8 -218 30 -66 60 -58 57 -70 35z m-95 -121 c22 -6 56 -7 75 -3 19 4 112 6 205
5 94 -1 183 2 199 7 18 5 54 3 95 -6 64 -13 128 -8 184 13 16 7 17 -4 17 -148
0 -177 -3 -183 -73 -139 -20 14 -40 22 -44 19 -3 -4 2 -9 11 -13 21 -8 21 -24
-1 -24 -15 0 -14 -2 3 -14 17 -13 15 -14 -22 -9 -27 3 -51 0 -72 -11 -35 -18
-43 -31 -13 -21 10 3 25 -1 33 -8 7 -8 23 -19 36 -26 12 -6 22 -16 22 -22 0
-6 -7 -6 -19 1 -28 14 -36 12 -21 -5 10 -12 10 -15 -3 -15 -8 0 -20 -6 -26
-13 -8 -11 1 -18 44 -36 30 -13 55 -26 55 -31 0 -4 -17 -14 -37 -22 l-38 -15
30 -8 c42 -11 63 -45 28 -45 -15 0 -16 2 -3 10 10 7 -1 8 -35 4 -27 -4 -52 -8
-53 -10 -2 -1 9 -9 25 -18 15 -8 21 -15 14 -16 -27 0 6 -22 33 -22 31 0 33
-11 6 -38 -22 -22 -19 -25 11 -10 11 7 19 22 19 38 1 15 8 38 16 52 l15 25 -6
-28 c-4 -21 -3 -27 6 -21 9 5 10 2 6 -10 -4 -10 -7 -21 -7 -26 0 -5 -12 -23
-27 -41 -29 -34 -15 -32 25 4 21 20 22 20 22 1 1 -18 1 -18 14 -1 14 18 14 18
18 0 5 -21 -12 -92 -35 -145 -36 -85 -148 -175 -299 -240 l-88 -38 -87 38
c-202 87 -310 199 -329 341 -6 45 -5 51 10 45 11 -4 16 -1 16 12 1 18 1 18 11
2 5 -10 20 -23 32 -29 22 -12 22 -12 3 10 -13 14 -20 39 -22 71 -2 58 11 58
21 0 7 -39 27 -70 46 -70 5 0 0 9 -11 20 -11 11 -20 27 -20 37 0 14 3 14 22
-3 12 -10 18 -14 15 -8 -4 7 3 15 16 18 19 6 20 8 5 14 -15 6 -12 10 15 22
l32 15 -43 5 c-51 8 -81 30 -40 30 41 0 42 17 3 30 -19 6 -35 15 -35 20 0 4
24 18 54 31 41 18 52 27 44 37 -6 6 -17 12 -25 12 -13 0 -13 3 -3 15 15 18 7
19 -22 4 -16 -9 -19 -8 -16 3 3 7 15 19 29 25 13 7 20 13 14 14 -5 1 8 5 30 9
l40 6 -40 18 c-25 12 -52 16 -75 12 -32 -5 -34 -4 -16 9 19 15 19 15 -5 15
l-24 0 25 20 c35 28 11 25 -30 -4 -19 -12 -42 -21 -52 -18 -16 4 -18 19 -18
159 l0 155 23 -7 c12 -3 40 -11 62 -16z m-10 -361 c42 -1 43 -2 30 -22 -7 -12
-16 -30 -19 -41 -5 -19 -2 -21 31 -18 l38 3 -40 -19 c-22 -11 -48 -20 -58 -20
-15 -1 -16 -4 -7 -21 13 -23 5 -59 -13 -61 -7 -1 -16 -2 -22 -4 -5 -1 -13 -3
-18 -3 -4 -1 -1 -15 8 -32 18 -35 19 -48 3 -32 -18 18 -27 14 -21 -10 4 -19 3
-20 -6 -8 -6 8 -11 27 -11 41 0 22 -6 28 -32 33 -17 3 -28 9 -25 13 4 3 2 12
-4 20 -9 10 -8 13 5 13 9 0 16 -4 16 -10 0 -19 30 3 36 27 5 19 9 21 15 11 10
-15 12 2 3 26 -8 22 -21 20 -47 -8 -18 -19 -24 -21 -34 -10 -17 18 0 64 24 65
14 0 13 2 -5 10 -24 9 -22 29 4 29 8 0 22 9 32 20 12 15 24 19 45 14 15 -3 48
-6 72 -6z m817 -1 c7 -7 27 -18 43 -26 30 -13 30 -13 8 -24 -24 -11 -33 -30
-10 -21 19 7 43 -46 26 -57 -14 -9 -49 7 -49 21 0 6 -7 10 -15 10 -33 0 -8
-72 32 -94 l28 -15 -32 -7 c-28 -5 -33 -11 -33 -35 0 -15 -5 -31 -12 -35 -8
-5 -9 -2 -5 9 3 9 2 19 -2 22 -5 3 -12 -2 -15 -11 -4 -9 -9 -14 -12 -11 -3 3
2 19 10 36 21 40 21 41 -15 41 -30 0 -31 1 -27 39 2 22 1 38 -2 36 -3 -1 -27
8 -55 21 l-50 24 36 -3 c33 -2 35 -1 31 23 -3 14 -12 34 -21 44 -15 18 -15 19
4 14 17 -4 57 0 117 11 4 0 13 -5 20 -12z m71 -174 c-7 -2 -21 -2 -30 0 -10 3
-4 5 12 5 17 0 24 -2 18 -5z m-847 -48 c10 -8 14 -15 8 -15 -5 0 -19 7 -30 15
-10 8 -14 15 -8 15 5 0 19 -7 30 -15z"/>
<path d="M2887 1253 c-4 -3 -7 -43 -7 -87 l0 -81 -21 44 c-18 42 -19 47 -4 83
14 36 14 38 -5 38 -10 0 -24 -8 -30 -17 -8 -13 -13 -14 -16 -5 -3 6 -14 12
-25 12 -17 0 -19 -8 -19 -80 0 -73 2 -80 20 -80 14 0 20 7 21 23 l0 22 16 -22
c12 -19 25 -23 64 -23 l49 0 0 90 c0 81 -2 90 -18 90 -10 0 -22 -3 -25 -7z"/>
<path d="M2950 1170 c0 -83 1 -90 20 -90 15 0 20 7 21 28 l1 27 10 -27 c7 -20
17 -28 34 -28 24 0 24 1 24 90 0 83 -1 90 -20 90 -15 0 -20 -7 -21 -27 l-1
-28 -11 28 c-7 18 -18 27 -34 27 -22 0 -23 -3 -23 -90z"/>
<path d="M3098 1249 c-14 -8 -18 -24 -18 -77 0 -79 9 -92 62 -92 l38 0 0 50
c0 49 -1 50 -30 50 -23 0 -30 5 -30 19 0 11 5 23 10 26 6 3 10 -1 10 -9 0 -9
9 -16 20 -16 13 0 20 7 20 18 0 37 -44 54 -82 31z m42 -119 c0 -5 -4 -10 -10
-10 -5 0 -10 5 -10 10 0 6 5 10 10 10 6 0 10 -4 10 -10z"/>
<path d="M3210 1231 c-15 -29 -12 -49 10 -71 l20 -20 -20 0 c-13 0 -20 -7 -20
-18 0 -27 20 -42 55 -42 56 0 73 44 33 87 -18 20 -19 23 -5 23 21 0 22 24 1
44 -21 22 -61 20 -74 -3z m50 -111 c0 -5 -2 -10 -4 -10 -3 0 -8 5 -11 10 -3 6
-1 10 4 10 6 0 11 -4 11 -10z"/>
<path d="M2938 934 c-3 -3 1 -27 10 -55 15 -47 15 -53 -5 -121 -12 -40 -20
-75 -17 -79 10 -17 44 6 54 37 13 39 26 37 35 -6 4 -17 10 -30 13 -31 4 0 15
-2 24 -4 28 -5 29 8 6 75 -20 60 -20 65 -4 115 21 68 20 77 -6 73 -15 -2 -24
-14 -33 -43 -8 -32 -12 -36 -18 -22 -4 10 -7 27 -7 37 0 22 -37 40 -52 24z"/>
<path d="M3098 886 c-1 -29 -1 -89 2 -132 4 -71 7 -79 25 -79 19 0 20 8 23
133 l3 132 -25 0 c-22 0 -24 -4 -28 -54z"/>
<path d="M2758 813 c6 -2 18 -2 25 0 6 3 1 5 -13 5 -14 0 -19 -2 -12 -5z"/>
<path d="M2742 610 c-12 -19 -11 -20 8 -8 20 13 27 28 12 28 -4 0 -13 -9 -20
-20z"/>
<path d="M3290 621 c0 -5 7 -11 14 -14 10 -4 13 -1 9 9 -6 15 -23 19 -23 5z"/>
<path d="M2731 539 c-47 -72 -47 -74 -23 -84 11 -4 21 0 30 14 10 15 21 18 46
14 63 -10 77 61 19 98 l-32 20 -40 -62z m69 -3 c0 -3 -4 -8 -10 -11 -5 -3 -10
-1 -10 4 0 6 5 11 10 11 6 0 10 -2 10 -4z"/>
<path d="M3238 563 l-27 -26 41 -51 c23 -28 45 -55 50 -60 8 -10 53 26 69 57
8 13 4 23 -15 42 -14 14 -30 34 -36 45 -15 28 -51 25 -82 -7z m92 -73 c0 -5
-4 -10 -10 -10 -5 0 -10 5 -10 10 0 6 5 10 10 10 6 0 10 -4 10 -10z"/>
<path d="M2833 463 c-23 -64 -18 -97 16 -108 39 -12 58 3 81 67 18 50 20 62 9
69 -23 14 -27 11 -45 -38 -18 -50 -34 -76 -34 -55 0 6 8 34 19 61 20 52 18 61
-9 61 -11 0 -23 -19 -37 -57z"/>
<path d="M3167 508 c-15 -12 -15 -19 -1 -78 22 -95 20 -93 44 -78 11 7 18 18
16 25 -7 17 5 24 20 12 9 -7 19 -7 34 1 20 11 19 13 -27 70 -51 62 -60 67 -86
48z"/>
<path d="M3109 483 c-15 -4 -16 -10 -3 -61 17 -73 17 -77 -1 -62 -8 7 -22 9
-31 6 -15 -6 -16 0 -10 49 6 51 5 55 -14 55 -12 0 -24 -9 -30 -22 -8 -22 -9
-22 -9 5 -1 22 -6 27 -25 27 -22 0 -25 -5 -31 -47 -3 -27 -8 -63 -11 -80 -4
-30 -3 -33 21 -33 19 0 25 5 26 23 1 21 1 21 8 -3 9 -33 46 -39 54 -10 l6 21
20 -20 c12 -12 24 -21 29 -21 19 0 52 33 52 53 0 29 -23 127 -30 126 -3 -1
-12 -3 -21 -6z"/>
<path d="M1597 1344 c-14 -14 -7 -30 13 -30 13 0 20 6 18 15 -3 16 -21 25 -31
15z"/>
<path d="M5992 1247 l-72 -102 146 -3 c81 -1 149 -1 151 2 5 5 -139 205 -147
205 -3 0 -38 -46 -78 -102z"/>
<path d="M3930 1311 c0 -11 4 -31 9 -45 7 -17 7 -26 -2 -29 -9 -3 -9 -8 1 -18
14 -15 16 -43 2 -34 -16 10 -12 -3 15 -46 14 -22 23 -44 21 -48 -3 -5 6 -21
21 -35 20 -21 24 -29 14 -35 -9 -6 -6 -13 13 -29 17 -13 24 -26 20 -36 -3 -9
-2 -16 4 -16 19 0 82 -69 76 -83 -3 -10 3 -17 20 -21 14 -3 26 -13 26 -22 0
-8 7 -17 16 -21 8 -3 13 -12 9 -20 -4 -11 -1 -13 12 -8 10 4 42 12 72 17 29 5
62 13 72 18 10 6 31 10 46 10 16 0 46 9 68 20 22 11 47 20 58 20 10 0 28 9 40
20 20 19 22 19 28 4 4 -13 7 -15 13 -5 5 7 18 10 31 7 14 -4 25 -1 28 7 4 9 6
9 6 0 1 -7 8 -13 17 -13 9 0 14 -6 11 -13 -4 -10 22 -19 101 -35 59 -12 135
-33 169 -47 75 -30 87 -31 80 -5 -3 13 1 21 15 26 11 3 17 12 14 19 -3 8 5 16
20 19 14 4 24 14 24 24 1 21 26 51 64 76 20 12 25 21 17 26 -9 5 -4 14 16 28
20 16 25 24 15 30 -9 6 -6 14 13 32 14 13 25 32 25 43 0 11 6 28 14 36 19 22
32 66 16 56 -7 -4 -5 5 4 24 10 19 12 31 6 31 -6 0 -9 8 -6 18 3 9 8 30 12 46
l7 30 -29 -22 c-54 -42 -109 -75 -202 -124 -69 -36 -103 -48 -136 -48 -53 0
-80 -27 -99 -98 -6 -25 -17 -47 -24 -49 -7 -3 -13 -11 -13 -18 0 -17 -23 -25
-67 -25 -42 0 -62 21 -63 66 0 59 -59 80 -144 50 -44 -15 -55 -28 -48 -61 5
-26 32 -57 32 -36 0 6 7 11 16 11 14 0 14 -3 4 -15 -7 -9 -29 -15 -52 -15 -56
0 -94 32 -109 90 -19 75 -37 92 -105 100 -45 6 -86 22 -167 66 -60 33 -126 74
-148 92 -35 30 -39 31 -39 13z m1312 -81 c-38 -34 -128 -77 -140 -66 -2 3 22
18 54 35 33 16 73 39 89 50 46 32 45 24 -3 -19z m-1174 -19 c45 -25 80 -47 78
-49 -14 -14 -153 58 -172 89 -9 14 -6 13 94 -40z m67 -93 c5 -5 3 -8 -5 -8
-23 0 -113 45 -129 63 -9 12 9 7 55 -14 38 -18 73 -36 79 -41z m1100 47 c-31
-26 -122 -61 -132 -51 -3 3 21 17 53 30 33 14 66 30 74 35 31 20 34 9 5 -14z
m-897 -64 c7 -9 20 -39 28 -68 10 -35 26 -62 50 -82 18 -17 34 -33 34 -37 0
-3 -13 -23 -30 -44 -20 -25 -38 -37 -55 -37 -13 0 -23 3 -20 7 2 4 -5 17 -16
29 -11 12 -17 26 -14 31 3 6 -1 10 -11 10 -13 0 -14 3 -4 15 10 13 9 15 -8 15
-15 0 -20 5 -16 15 4 9 1 15 -7 15 -10 0 -10 3 -1 12 18 18 15 28 -10 28 -21
0 -21 0 -2 15 19 14 19 14 -3 15 -23 0 -44 20 -21 20 7 0 2 9 -12 20 -22 17
-22 20 -6 20 15 0 16 3 6 15 -11 14 -6 15 46 9 36 -4 64 -13 72 -23z m692 20
c0 -5 -6 -12 -12 -14 -8 -3 -6 -6 5 -6 21 -1 23 -17 2 -25 -8 -3 -12 -12 -9
-21 4 -11 0 -15 -16 -15 -18 0 -20 -3 -11 -14 9 -11 7 -15 -11 -19 -22 -6 -22
-7 -3 -21 18 -14 18 -15 3 -16 -11 0 -15 -5 -12 -15 4 -10 0 -15 -11 -15 -11
0 -15 -5 -11 -15 3 -8 1 -15 -5 -15 -6 0 -9 -6 -6 -13 3 -8 -3 -20 -14 -28
-10 -7 -19 -19 -19 -25 0 -6 -9 -14 -21 -17 -23 -6 -49 1 -49 13 0 5 -11 22
-25 38 l-24 29 39 37 c25 24 47 58 61 96 12 33 27 64 33 69 20 16 116 26 116
12z m-945 -31 c22 -10 34 -19 27 -19 -16 -1 -82 26 -82 33 0 9 12 6 55 -14z
m1120 11 c-7 -12 -75 -35 -81 -28 -4 4 54 28 84 36 2 1 1 -3 -3 -8z m-1065
-72 c25 -14 -20 -9 -60 6 l-35 14 40 -6 c22 -3 47 -9 55 -14z m516 10 c3 -6 7
-30 8 -53 1 -42 1 -42 -34 -42 -40 1 -63 33 -35 49 12 7 13 12 5 22 -7 8 -9
19 -5 25 8 13 52 13 61 -1z m519 2 c-6 -5 -28 -12 -50 -15 l-40 -5 40 13 c49
18 62 19 50 7z m-1012 -61 c5 -4 -10 -4 -33 0 -22 4 -44 11 -48 15 -9 10 71
-4 81 -15z m992 11 c-39 -16 -75 -21 -75 -12 0 10 28 18 70 19 22 1 23 0 5 -7z
m-942 -88 c-7 -2 -21 -2 -30 0 -10 3 -4 5 12 5 17 0 24 -2 18 -5z m20 -40 c-7
-2 -19 -2 -25 0 -7 3 -2 5 12 5 14 0 19 -2 13 -5z m810 0 c-7 -2 -19 -2 -25 0
-7 3 -2 5 12 5 14 0 19 -2 13 -5z m-43 -73 c13 -9 13 -10 0 -10 -8 0 -22 5
-30 10 -13 9 -13 10 0 10 8 0 22 -5 30 -10z"/>
<path d="M4585 1280 c-3 -5 -1 -10 4 -10 6 0 11 5 11 10 0 6 -2 10 -4 10 -3 0
-8 -4 -11 -10z"/>
<path d="M4491 1254 c0 -11 3 -14 6 -6 3 7 2 16 -1 19 -3 4 -6 -2 -5 -13z"/>
<path d="M4340 1160 c0 -15 21 -23 32 -12 6 6 2 11 -11 15 -12 3 -21 1 -21 -3z"/>
<path d="M1300 1142 c0 -4 -12 -15 -27 -25 l-28 -17 30 6 c20 4 26 3 17 -4
-10 -7 -2 -15 32 -30 29 -14 51 -34 62 -54 21 -40 50 -65 89 -76 19 -5 31 -15
32 -28 10 -104 16 -134 24 -134 6 0 9 45 7 113 l-3 112 -37 3 c-43 4 -55 16
-66 67 -7 35 -12 40 -57 56 -56 20 -75 23 -75 11z"/>
<path d="M1848 1132 c-51 -14 -58 -19 -58 -41 0 -49 -22 -76 -65 -81 l-40 -5
-3 -112 c-4 -155 19 -150 30 6 3 29 8 36 33 44 36 12 72 43 91 79 13 26 70 63
119 79 18 6 18 7 -4 8 -21 1 -22 3 -10 18 13 15 12 16 -9 11 -12 -4 -20 -2
-16 3 7 11 2 11 -68 -9z"/>
<path d="M5996 1105 c-3 -9 -6 -25 -6 -36 0 -11 -7 -19 -16 -19 -12 0 -15 7
-12 30 3 19 0 30 -7 30 -7 0 -15 -13 -18 -30 -9 -41 -28 -39 -21 3 5 30 5 31
-10 13 -9 -11 -16 -30 -16 -43 0 -18 6 -23 24 -23 14 0 28 5 31 10 5 8 11 7
21 -1 21 -17 41 -4 49 31 8 35 -8 63 -19 35z"/>
<path d="M6035 1084 c-8 -20 -15 -38 -15 -39 0 -1 18 -2 40 -2 22 0 40 1 40 2
0 14 -33 75 -40 75 -5 0 -17 -16 -25 -36z"/>
<path d="M6110 1080 c0 -29 4 -40 15 -40 8 0 15 6 15 13 0 6 5 4 11 -5 18 -31
30 -20 23 20 -7 39 -18 52 -46 52 -14 0 -18 -9 -18 -40z"/>
<path d="M6195 1079 c-8 -37 -3 -43 40 -46 l35 -2 -20 40 c-24 47 -46 50 -55
8z"/>
<path d="M6250 1094 c0 -8 5 -14 11 -14 5 0 15 -13 20 -30 6 -16 17 -30 25
-30 17 0 17 5 3 32 -8 16 -8 22 2 29 11 6 11 9 -1 13 -44 13 -60 13 -60 0z"/>
<path d="M5820 1068 c-12 -19 -16 -36 -10 -42 14 -14 57 2 63 24 6 23 -11 27
-19 5 -9 -22 -23 -18 -17 5 3 11 14 20 24 20 11 0 19 5 19 10 0 23 -41 8 -60
-22z"/>
<path d="M1276 1027 c3 -10 9 -15 12 -12 3 3 0 11 -7 18 -10 9 -11 8 -5 -6z"/>
<path d="M5647 1020 c-38 -10 -70 -20 -71 -21 -2 -2 -11 -19 -20 -37 -16 -31
-16 -35 -1 -52 15 -17 13 -27 -38 -151 l-55 -134 22 -14 c11 -8 22 -15 24 -17
2 -1 -28 -45 -67 -97 -39 -53 -71 -98 -71 -100 0 -3 114 -6 253 -6 l252 -1 98
-40 98 -40 99 40 99 39 251 1 c137 1 250 4 250 6 0 3 -28 44 -62 91 l-62 85
22 17 23 17 -33 77 c-17 42 -35 77 -39 77 -4 0 6 -32 23 -70 17 -39 29 -72 27
-75 -3 -2 -27 2 -54 11 -27 8 -54 13 -60 11 -5 -2 14 -9 43 -16 57 -14 65 -26
28 -43 -19 -8 -42 -7 -101 7 -42 10 -78 21 -80 26 -3 4 3 17 13 29 15 19 22
21 40 11 39 -21 47 -11 9 11 -29 17 -42 34 -57 76 -12 30 -18 57 -16 60 10 9
83 -48 94 -73 12 -25 32 -34 32 -15 0 27 -34 70 -84 108 -31 23 -61 52 -67 65
-14 24 -50 139 -46 144 5 4 102 -23 125 -36 12 -6 28 -24 36 -39 9 -16 15 -21
16 -11 0 27 -55 70 -111 84 -72 20 -78 19 -88 -8 -8 -20 -15 -23 -40 -19 -25
3 -31 1 -32 -14 0 -17 -2 -16 -11 3 -8 16 -22 22 -62 26 -72 7 -311 -1 -374
-11 -51 -9 -54 -8 -64 14 -13 28 -22 29 -111 4z m93 6 c0 -19 -22 -56 -34 -56
-28 0 -43 -30 -92 -174 l-48 -145 -40 -10 c-22 -5 -42 -9 -43 -7 -2 2 24 70
57 151 33 81 60 150 60 152 0 2 -9 1 -20 -2 -23 -7 -24 -5 -8 30 9 19 25 29
67 41 31 8 61 17 66 19 15 5 35 6 35 1z m411 -147 c14 -69 29 -138 33 -152 5
-23 3 -27 -16 -27 -47 0 -67 12 -70 39 -2 18 -10 27 -25 29 -20 3 -23 -1 -23
-27 0 -30 -1 -31 -46 -31 -38 0 -45 3 -40 18 2 9 14 71 26 137 12 66 23 126
26 133 3 9 20 12 56 10 l52 -3 27 -126z m-161 97 c0 -18 -7 -25 -28 -29 -28
-6 -28 -6 -41 -126 l-13 -121 -42 0 -43 0 19 103 c24 138 24 139 -9 131 -22
-6 -25 -4 -20 10 4 10 7 24 7 31 0 15 29 21 113 24 54 1 57 0 57 -23z m250 4
c10 -10 29 -38 40 -61 25 -48 34 -47 20 2 -17 59 -14 70 18 63 15 -4 29 -8 31
-10 4 -4 89 -298 87 -301 -1 -1 -19 0 -40 4 -32 5 -43 13 -65 50 -49 83 -52
85 -45 21 l6 -57 -38 6 c-22 3 -40 6 -41 7 0 1 -10 67 -20 149 l-19 147 23 0
c13 0 32 -9 43 -20z m-474 -155 l-33 -139 -38 -8 c-21 -5 -39 -7 -41 -5 -2 2
7 39 20 83 14 43 34 111 45 151 19 64 24 72 49 75 15 2 28 -1 29 -7 2 -5 -12
-73 -31 -150z m276 -140 c0 -8 1 -20 2 -27 1 -7 -13 -12 -34 -12 -31 -1 -35 2
-38 27 -3 25 -1 27 32 27 25 0 36 -5 38 -15z m-128 -11 c10 -27 7 -32 -25 -36
-22 -4 -34 1 -44 15 -19 27 -11 37 30 37 21 0 35 -6 39 -16z m264 -6 c-3 -25
-42 -36 -67 -19 -25 16 -4 41 34 41 32 0 36 -3 33 -22z m94 12 c15 0 16 -4 6
-25 -10 -22 -16 -25 -42 -19 -38 8 -36 6 -29 33 4 17 11 21 27 17 11 -3 29 -6
38 -6z m-517 -32 c15 -22 14 -23 -17 -30 -26 -5 -38 -2 -56 15 -21 20 -22 22
-5 28 34 14 62 9 78 -13z m654 13 c12 -8 12 -12 2 -25 -14 -17 -71 -22 -71 -7
0 37 35 53 69 32z m-821 -37 c30 -21 28 -30 -9 -38 -20 -4 -39 0 -55 10 -37
25 -31 34 31 43 6 0 21 -6 33 -15z m309 -71 c-3 -5 75 -8 173 -8 98 0 176 3
173 8 -2 4 -2 7 2 7 20 0 281 -43 285 -47 3 -3 -40 -2 -94 2 -56 4 -96 4 -93
-1 3 -5 -116 -9 -273 -9 -157 0 -276 4 -273 9 3 5 -37 6 -93 3 -114 -7 -104
-2 50 23 130 21 149 23 143 13z"/>
<path d="M6060 876 c0 -25 5 -46 10 -46 6 0 10 18 10 39 0 22 -4 43 -10 46 -6
4 -10 -12 -10 -39z"/>
<path d="M1305 1020 c7 -11 -20 -31 -30 -22 -5 4 -5 2 -2 -5 4 -6 1 -14 -5
-17 -7 -3 -3 -3 10 0 13 3 22 1 22 -6 0 -9 81 -51 158 -81 40 -16 23 7 -23 29
-26 13 -55 37 -70 61 -15 21 -35 41 -46 44 -10 3 -17 2 -14 -3z"/>
<path d="M1900 1018 c-14 -6 -34 -24 -45 -42 -11 -17 -41 -42 -68 -56 -53 -28
-64 -47 -14 -27 113 48 142 62 145 69 2 4 12 8 23 8 18 0 18 1 2 19 -9 11 -21
17 -26 14 -6 -3 -7 -1 -4 5 4 5 17 8 30 5 18 -4 19 -3 7 6 -17 12 -17 12 -50
-1z"/>
<path d="M1572 1008 c-8 -8 -12 -56 -12 -155 l0 -143 50 0 50 0 0 149 c0 118
-3 150 -14 154 -8 3 -16 -2 -19 -14 -7 -25 -26 -24 -35 1 -6 16 -10 18 -20 8z"/>
<path d="M6450 940 c0 -23 29 -66 59 -88 30 -22 31 -22 31 -3 0 12 -12 28 -26
38 -14 9 -30 27 -35 40 -9 23 -29 32 -29 13z"/>
<path d="M1024 867 c3 -10 6 -23 6 -28 0 -5 5 -9 11 -9 6 0 18 -9 27 -20 16
-18 35 -20 220 -26 173 -6 202 -5 202 7 0 12 -47 22 -207 44 -115 17 -217 30
-228 30 -11 0 -24 5 -28 10 -5 6 -6 2 -3 -8z m71 -35 c-2 -3 -16 -1 -32 2 -20
6 -23 10 -13 16 12 8 54 -9 45 -18z m2 -18 c-3 -3 -12 -4 -19 -1 -8 3 -5 6 6
6 11 1 17 -2 13 -5z"/>
<path d="M1938 837 c-161 -24 -208 -34 -208 -45 0 -13 29 -14 203 -8 l202 7
28 29 c53 59 60 58 -225 17z m232 2 c-10 -18 -39 -33 -48 -24 -3 3 0 5 7 5 7
0 9 5 5 12 -5 8 -2 9 9 5 10 -3 17 -2 17 2 0 5 -6 11 -12 14 -7 3 -3 4 9 4 17
-1 20 -5 13 -18z"/>
<path d="M4499 825 c-3 -20 1 -98 6 -103 3 -3 0 -11 -6 -19 -9 -10 -8 -13 4
-13 19 0 33 50 16 61 -6 4 -9 14 -6 23 4 9 2 26 -3 38 -5 13 -10 19 -11 13z"/>
<path d="M4616 797 c1 -18 2 -47 3 -64 2 -55 17 -37 18 21 0 29 3 58 6 63 3 5
-2 9 -11 10 -13 1 -17 -6 -16 -30z"/>
<path d="M4676 804 c-3 -9 -6 -32 -6 -52 0 -27 3 -33 10 -22 5 8 7 25 3 38 -3
12 0 29 7 37 7 9 8 15 2 15 -5 0 -13 -7 -16 -16z"/>
<path d="M4728 813 c7 -3 16 -2 19 1 4 3 -2 6 -13 5 -11 0 -14 -3 -6 -6z"/>
<path d="M4437 796 c-6 -14 0 -26 13 -26 3 0 6 9 6 20 0 23 -11 27 -19 6z"/>
<path d="M4550 795 c0 -8 7 -15 15 -15 8 0 15 7 15 15 0 8 -7 15 -15 15 -8 0
-15 -7 -15 -15z"/>
<path d="M4762 753 c-6 -32 -8 -60 -6 -62 7 -8 15 6 19 35 3 16 8 41 11 57 4
16 2 27 -4 27 -5 0 -15 -26 -20 -57z"/>
<path d="M4365 789 c-19 -9 -19 -9 1 -5 19 3 23 -3 30 -38 4 -22 8 -46 8 -53
1 -6 5 -15 10 -20 5 -4 6 11 1 37 -4 25 -8 55 -8 68 -2 24 -11 26 -42 11z"/>
<path d="M4720 780 c0 -5 5 -10 10 -10 6 0 10 5 10 10 0 6 -4 10 -10 10 -5 0
-10 -4 -10 -10z"/>
<path d="M4874 782 c2 -4 1 -14 -4 -22 -7 -11 -11 -12 -24 0 -9 7 -20 9 -24 5
-4 -4 -1 -10 6 -12 17 -6 15 -23 -3 -23 -8 0 -15 -5 -15 -11 0 -6 9 -8 20 -4
15 5 20 2 20 -13 0 -11 -6 -23 -12 -25 -8 -4 -7 -6 3 -6 18 -1 29 18 29 50 0
10 5 19 10 19 6 0 10 11 10 25 0 14 -5 25 -11 25 -5 0 -8 -4 -5 -8z"/>
<path d="M4334 757 c8 -45 17 -67 28 -67 13 0 2 46 -18 74 -14 20 -15 20 -10
-7z"/>
<path d="M4282 761 c-7 -4 -12 -14 -10 -22 2 -9 -6 -14 -22 -15 -52 -2 -55 -3
-43 -15 8 -8 20 -9 42 -1 28 10 33 9 47 -13 9 -14 13 -33 10 -42 -7 -17 -6
-17 10 -1 16 16 16 19 -5 54 -12 20 -20 43 -17 50 6 16 5 16 -12 5z"/>
<path d="M1181 751 c-50 -6 -53 -7 -36 -21 14 -12 57 -16 207 -18 l190 -3 -4
23 c-3 23 -4 23 -153 24 -82 1 -174 -2 -204 -5z"/>
<path d="M1680 735 l0 -25 169 0 c155 0 231 10 231 30 0 10 -132 20 -277 20
l-123 0 0 -25z"/>
<path d="M4210 750 c-8 -5 -10 -10 -5 -10 6 0 17 5 25 10 8 5 11 10 5 10 -5 0
-17 -5 -25 -10z"/>
<path d="M4558 753 c-6 -11 15 -47 29 -50 7 -2 9 7 4 24 -7 27 -25 41 -33 26z"/>
<path d="M4975 748 c3 -8 -2 -32 -11 -53 -14 -34 -14 -37 -1 -26 26 21 38 68
21 82 -12 9 -13 9 -9 -3z"/>
<path d="M4925 730 c3 -5 8 -10 11 -10 2 0 4 5 4 10 0 6 -5 10 -11 10 -5 0 -7
-4 -4 -10z"/>
<path d="M4155 720 c-5 -8 51 -100 61 -100 8 0 -12 35 -33 58 -13 14 -21 32
-19 39 6 15 0 17 -9 3z"/>
<path d="M4454 713 c5 -16 2 -23 -11 -26 -15 -4 -15 -5 -2 -6 28 -2 42 24 23
40 -15 12 -16 11 -10 -8z"/>
<path d="M5063 714 c31 -17 34 -29 10 -43 -10 -6 -13 -11 -7 -11 13 0 34 21
34 35 0 7 -11 17 -25 23 -37 17 -45 14 -12 -4z"/>
<path d="M4898 676 c-3 -14 -1 -23 4 -20 5 3 17 0 26 -8 15 -11 16 -11 4 3 -7
9 -11 22 -10 29 2 7 -2 14 -8 17 -6 2 -14 -7 -16 -21z"/>
<path d="M5025 690 c3 -5 10 -10 16 -10 5 0 9 5 9 10 0 6 -7 10 -16 10 -8 0
-12 -4 -9 -10z"/>
<path d="M4545 683 c-51 -4 -225 -45 -225 -52 0 -3 11 -19 25 -35 14 -16 25
-33 25 -38 0 -5 12 -14 28 -21 15 -6 29 -14 32 -17 3 -4 20 -10 38 -16 l34 -9
-22 -27 c-25 -33 -19 -48 48 -124 41 -46 47 -49 93 -49 46 0 51 3 93 50 68 77
73 88 47 123 l-21 31 22 6 c47 14 97 40 98 51 0 6 11 24 25 40 14 16 25 32 25
35 0 6 -97 33 -155 43 -44 8 -164 13 -210 9z m264 -70 c0 -11 -3 -13 -6 -5 -7
19 -23 14 -16 -5 3 -10 3 -15 -2 -11 -4 4 -23 1 -43 -7 -19 -9 -47 -14 -61
-13 -15 1 -32 -1 -38 -5 -6 -4 -15 -2 -19 4 -4 8 -9 7 -15 -2 -7 -11 -9 -11
-9 2 0 12 14 18 56 23 31 4 59 4 62 2 2 -3 11 2 19 10 8 8 18 12 23 9 5 -3 11
-1 15 5 10 17 35 11 34 -7z m-369 3 c0 -3 -4 -8 -10 -11 -5 -3 -10 -1 -10 4 0
6 5 11 10 11 6 0 10 -2 10 -4z m49 -15 c9 -6 10 -11 2 -15 -6 -4 -11 -2 -11 4
0 7 -7 10 -15 6 -8 -3 -15 -1 -15 4 0 12 20 13 39 1z m28 -23 c-3 -8 -6 -5 -6
6 -1 11 2 17 5 13 3 -3 4 -12 1 -19z m66 13 c4 -1 7 -6 7 -11 0 -6 -13 -9 -29
-8 -18 1 -27 7 -24 14 2 7 12 11 21 9 9 -2 20 -4 25 -4z"/>
<path d="M4788 683 c7 -3 16 -2 19 1 4 3 -2 6 -13 5 -11 0 -14 -3 -6 -6z"/>
<path d="M1301 657 c-5 -13 -11 -37 -14 -53 -3 -16 -8 -41 -12 -56 -6 -25 -5
-28 18 -28 27 0 46 18 30 29 -15 10 -22 38 -13 47 15 15 24 84 11 84 -6 0 -16
-11 -20 -23z"/>
<path d="M1366 653 c-23 -119 -18 -141 29 -129 24 6 28 16 41 109 4 30 3 47
-4 47 -6 0 -14 -24 -17 -53 -4 -30 -11 -60 -15 -68 -17 -27 -24 2 -14 61 8 46
7 60 -2 60 -7 0 -15 -12 -18 -27z"/>
<path d="M1470 660 c-6 -12 -8 -30 -4 -42 4 -14 2 -18 -5 -14 -17 11 -14 -59
4 -74 16 -14 47 -10 52 6 2 6 -5 14 -17 17 -14 4 -20 13 -20 35 0 40 9 62 26
62 8 0 14 7 14 15 0 22 -38 18 -50 -5z"/>
<path d="M1547 673 c-3 -5 -5 -30 -6 -58 -1 -27 -2 -59 -4 -69 -1 -10 4 -21
11 -23 8 -3 12 7 13 29 l1 33 14 -32 c12 -28 44 -47 44 -26 0 24 -35 93 -47
93 -11 0 -13 7 -8 30 6 27 -6 43 -18 23z"/>
<path d="M1590 671 c0 -5 -3 -16 -6 -25 -10 -26 12 -18 24 9 10 21 9 25 -3 25
-8 0 -15 -4 -15 -9z"/>
<path d="M1632 605 c-1 -41 3 -77 8 -80 6 -4 10 9 10 29 0 20 5 36 10 36 6 0
10 -6 10 -14 0 -18 36 -63 45 -55 10 10 -7 159 -18 159 -5 0 -7 -14 -5 -30 7
-44 -9 -47 -26 -5 -8 19 -19 35 -24 35 -5 0 -10 -34 -10 -75z"/>
<path d="M1738 655 c-15 -33 1 -114 25 -129 30 -19 52 5 51 57 -1 78 -51 126
-76 72z m48 -29 c8 -32 1 -72 -11 -68 -13 3 -26 53 -19 75 8 24 23 21 30 -7z"/>
<path d="M1813 668 c6 -18 25 -78 35 -113 5 -16 17 -32 26 -33 16 -3 18 2 14
36 -4 46 2 45 18 -1 6 -18 18 -33 27 -35 14 -3 17 5 17 40 0 61 -11 118 -22
118 -6 0 -7 -20 -3 -50 4 -27 5 -50 2 -50 -3 0 -13 23 -22 50 -21 62 -35 64
-35 5 0 -25 -4 -45 -9 -45 -5 0 -12 20 -15 45 -5 31 -12 45 -23 45 -8 0 -13
-6 -10 -12z"/>
<path d="M4232 671 c-11 -7 -10 -10 3 -15 19 -7 35 0 35 15 0 11 -20 12 -38 0z"/>
<path d="M5000 660 c0 -5 5 -10 11 -10 5 0 7 5 4 10 -3 6 -8 10 -11 10 -2 0
-4 -4 -4 -10z"/>
<path d="M5044 628 l-19 -23 23 19 c21 18 27 26 19 26 -2 0 -12 -10 -23 -22z"/>
<path d="M1205 473 c-13 -12 -15 -26 -10 -60 6 -39 4 -43 -14 -43 -24 0 -28
-18 -6 -26 34 -13 69 45 52 85 -9 19 -8 26 6 36 9 7 17 15 17 19 0 12 -29 6
-45 -11z"/>
<path d="M1257 428 c-11 -45 -13 -66 -5 -75 27 -33 61 0 77 75 13 63 13 62 3
62 -5 0 -16 -28 -26 -62 -11 -39 -20 -58 -27 -51 -6 6 -4 27 6 59 8 27 15 50
15 52 0 1 -6 2 -14 2 -8 0 -19 -24 -29 -62z"/>
<path d="M1360 478 c-1 -7 -7 -39 -14 -70 -9 -34 -10 -60 -5 -64 5 -3 12 3 16
13 3 10 19 30 35 46 39 36 36 80 -4 85 -18 2 -28 -1 -28 -10z m30 -33 c0 -8
-4 -15 -10 -15 -5 0 -7 7 -4 15 4 8 8 15 10 15 2 0 4 -7 4 -15z"/>
<path d="M1436 473 c-2 -10 -8 -42 -11 -70 l-7 -53 31 0 c21 0 31 5 31 15 0 8
-7 15 -15 15 -8 0 -15 7 -15 15 0 8 7 15 15 15 21 0 19 16 -2 25 -16 6 -16 8
5 25 28 23 28 30 -2 30 -15 0 -27 -7 -30 -17z"/>
<path d="M1506 468 c-14 -71 -15 -118 -2 -118 8 0 17 10 21 23 l8 22 4 -22 c2
-13 10 -23 16 -23 8 0 12 19 11 58 -2 82 -2 82 -29 82 -18 0 -26 -6 -29 -22z
m31 -30 c-3 -8 -6 -5 -6 6 -1 11 2 17 5 13 3 -3 4 -12 1 -19z"/>
<path d="M1609 451 c-14 -48 -6 -87 22 -101 32 -17 49 -5 49 35 0 38 -14 47
-23 14 -8 -30 -27 -14 -27 23 0 21 6 31 20 35 29 8 25 33 -5 33 -20 0 -26 -7
-36 -39z"/>
<path d="M1694 459 c3 -17 6 -48 6 -69 0 -34 3 -38 30 -42 24 -4 30 -1 30 14
0 21 25 24 37 4 4 -8 19 -16 33 -18 23 -3 25 0 23 32 -2 31 -1 33 10 16 27
-41 46 -61 52 -54 6 6 -4 66 -22 131 -8 30 -20 19 -16 -15 l4 -33 -21 33 c-33
49 -43 41 -36 -30 l6 -63 -20 50 c-11 28 -20 56 -20 63 0 6 -9 12 -20 12 -16
0 -20 -7 -21 -37 -1 -21 -5 -51 -8 -68 -6 -25 -9 -19 -15 38 -6 50 -12 67 -23
67 -12 0 -14 -7 -9 -31z m86 -35 c0 -8 -5 -12 -10 -9 -6 4 -8 11 -5 16 9 14
15 11 15 -7z"/>
<path d="M1900 480 c0 -6 7 -13 14 -16 8 -3 20 -30 26 -60 8 -35 16 -54 26
-54 15 0 12 24 -8 79 -5 14 -5 28 2 36 5 6 7 15 3 18 -10 11 -63 8 -63 -3z"/>
<path d="M1980 466 c0 -13 11 -34 25 -47 29 -28 32 -49 8 -49 -16 0 -16 -1 -1
-16 9 -9 24 -14 32 -11 24 9 19 51 -9 77 -26 24 -33 50 -14 50 5 0 7 5 4 10
-3 6 -15 10 -26 10 -13 0 -19 -7 -19 -24z"/>
<path d="M1549 308 c0 -7 -2 -34 -5 -60 l-5 -48 71 0 72 0 -3 48 c-4 71 -5 72
-70 72 -40 0 -59 -4 -60 -12z"/>
</g>
</svg>
