<?xml version="1.0" standalone="no"?>
<!DOCTYPE svg PUBLIC "-//W3C//DTD SVG 20010904//EN"
 "http://www.w3.org/TR/2001/REC-SVG-20010904/DTD/svg10.dtd">
<svg version="1.0" xmlns="http://www.w3.org/2000/svg"
 width="734.000000pt" height="304.000000pt" viewBox="0 0 734.000000 304.000000"
 preserveAspectRatio="xMidYMid meet">

<g transform="translate(0.000000,304.000000) scale(0.100000,-0.100000)"
fill="#000000" stroke="none">
<path d="M0 1900 c0 -1079 1 -1140 18 -1141 9 -1 31 -3 47 -5 17 -1 50 -2 75
-2 89 0 118 -1 320 -16 113 -8 209 -15 214 -15 19 -2 -3 -13 -41 -22 -107 -25
-534 -42 -608 -23 l-25 6 0 -341 0 -341 2117 2 2117 3 8 25 c7 24 8 24 4 -2
l-3 -28 1548 0 1549 0 0 1520 0 1520 -3670 0 -3670 0 0 -1140z m4726 990 c-1
-16 -4 -30 -8 -30 -3 0 -15 -3 -25 -7 -17 -6 -17 -6 -1 10 9 9 20 26 23 37 9
28 12 25 11 -10z m114 -20 c0 -5 -2 -10 -4 -10 -3 0 -8 5 -11 10 -3 6 -1 10 4
10 6 0 11 -4 11 -10z m-135 -41 c-18 -5 -33 -5 -39 1 -7 7 4 10 30 9 39 -1 39
-1 9 -10z m-2555 -20 c0 -5 -7 -9 -15 -9 -15 0 -20 12 -9 23 8 8 24 -1 24 -14z
m2528 -17 c2 -7 -6 -12 -17 -12 -21 0 -27 11 -14 24 9 9 26 2 31 -12z m220 0
c2 -7 -6 -12 -17 -12 -21 0 -27 11 -14 24 9 9 26 2 31 -12z m-171 2 c-3 -3
-12 -4 -19 -1 -8 3 -5 6 6 6 11 1 17 -2 13 -5z m189 -33 c-9 -10 -16 -30 -16
-44 0 -15 -5 -27 -11 -27 -6 0 -8 7 -5 16 3 9 6 27 6 40 0 15 6 24 15 24 8 0
15 8 16 18 0 11 2 12 6 4 3 -7 -2 -21 -11 -31z m-286 19 c0 -5 -2 -10 -4 -10
-3 0 -8 5 -11 10 -3 6 -1 10 4 10 6 0 11 -4 11 -10z m151 -17 c6 -6 -2 -16
-26 -29 -21 -11 -35 -26 -35 -38 0 -16 -3 -15 -20 7 -23 28 -26 63 -7 70 19 8
76 2 88 -10z m-121 -12 c0 -6 -4 -13 -10 -16 -5 -3 -10 1 -10 9 0 9 5 16 10
16 6 0 10 -4 10 -9z m-2632 -45 c24 -3 61 -15 83 -26 21 -11 47 -20 57 -20 10
0 27 -9 37 -20 10 -11 21 -17 25 -15 4 3 24 -17 45 -43 36 -46 37 -46 34 -17
-2 17 -7 35 -11 41 -5 7 -1 14 13 17 17 5 20 2 16 -15 -7 -26 2 -48 19 -48 15
0 19 -26 5 -34 -13 -9 14 -91 30 -92 8 -1 19 -2 26 -3 7 0 26 -16 42 -33 17
-18 31 -28 31 -21 0 6 -5 15 -10 18 -8 5 -8 11 0 20 6 7 13 26 15 42 2 15 4
30 4 32 1 3 8 -4 16 -15 15 -18 15 -18 13 6 -2 14 -9 24 -16 22 -6 -1 -12 2
-12 7 0 5 -3 16 -6 25 -3 9 -1 16 4 16 6 0 14 -9 17 -20 6 -20 45 -29 45 -10
0 6 6 10 14 10 8 0 17 11 20 25 4 14 11 25 16 25 6 0 10 7 10 15 0 8 -4 15
-10 15 -5 0 -10 5 -10 10 0 17 28 11 40 -7 9 -17 11 -17 21 0 8 13 21 17 50
15 22 -1 43 3 47 9 4 6 34 12 67 14 33 2 63 8 66 12 3 5 23 4 44 -2 21 -6 42
-8 46 -5 8 5 78 -10 109 -23 8 -4 25 -7 37 -7 13 -1 22 -5 22 -10 0 -4 11 -15
25 -22 14 -8 37 -20 51 -27 14 -8 22 -17 18 -20 -3 -4 3 -7 15 -7 13 0 22 -6
22 -16 0 -8 5 -12 10 -9 7 4 9 -2 5 -18 -5 -17 -2 -26 10 -31 11 -4 14 -12 10
-27 -4 -13 -2 -25 5 -29 15 -9 15 -41 -2 -109 -9 -40 -10 -55 -1 -58 12 -4 -5
-63 -19 -63 -4 0 -8 -4 -8 -10 0 -5 7 -10 15 -10 9 0 27 -12 40 -26 13 -14 27
-25 32 -25 18 1 43 -11 43 -21 0 -5 -9 -12 -20 -15 -26 -7 -26 -23 1 -23 15 0
19 -5 15 -15 -3 -8 -2 -15 2 -15 10 0 32 -50 32 -72 0 -28 22 -67 35 -62 7 3
15 -4 18 -15 3 -12 13 -21 22 -21 16 0 45 -22 45 -34 0 -12 -28 -6 -33 7 -2 6
-8 8 -13 4 -5 -4 -3 -12 4 -16 8 -4 20 -21 29 -37 44 -82 46 -86 33 -94 -16
-10 14 -22 35 -14 10 4 15 0 15 -11 0 -12 -5 -15 -20 -10 -11 4 -20 2 -20 -4
0 -6 14 -11 30 -11 17 0 30 5 30 11 0 6 7 4 15 -5 17 -16 20 -30 6 -21 -6 3
-14 -2 -19 -12 -9 -15 -12 -15 -26 -3 -12 9 -20 10 -28 2 -8 -8 0 -15 28 -27
29 -12 35 -18 25 -25 -11 -6 -10 -9 5 -13 10 -2 7 -3 -8 -1 -15 2 -30 -1 -33
-6 -3 -5 -13 -7 -23 -4 -14 5 -15 4 -2 -5 8 -6 23 -11 33 -11 17 0 47 -22 47
-34 0 -2 -9 -4 -20 -3 -11 1 -20 5 -20 9 0 4 -4 8 -10 8 -5 0 -10 -7 -10 -15
0 -8 -5 -15 -11 -15 -5 0 -7 -4 -4 -10 3 -5 17 -10 31 -10 15 0 24 -6 24 -15
0 -8 5 -15 11 -15 5 0 7 -5 4 -10 -4 -6 -12 -4 -21 5 -14 14 -34 20 -34 11 0
-22 17 -36 41 -36 16 0 29 -5 29 -11 0 -6 -12 -9 -27 -6 -16 2 -22 2 -14 -1
12 -3 12 -5 0 -13 -9 -6 -2 -7 19 -3 35 7 44 -8 15 -24 -14 -9 -13 -12 10 -36
15 -15 37 -26 52 -26 15 0 24 -4 20 -10 -3 -5 0 -10 8 -10 13 0 47 -40 47 -54
0 -3 -12 -7 -27 -9 -23 -3 -21 -4 9 -6 20 0 40 -5 43 -11 4 -6 15 -4 29 5 22
14 24 14 30 -2 7 -17 8 -17 17 0 6 9 7 22 4 27 -3 6 1 10 11 10 13 0 15 -6 10
-30 -3 -19 -2 -29 4 -25 6 3 10 1 10 -5 0 -6 5 -8 13 -3 20 12 57 15 57 3 0
-5 7 -10 16 -10 14 0 14 -3 3 -16 -11 -14 -13 -14 -21 0 -5 9 -16 16 -24 16
-11 0 -12 -4 -5 -19 21 -38 -31 -44 -61 -6 -11 14 -25 25 -33 25 -7 0 -15 5
-17 11 -2 7 -8 6 -15 -3 -10 -11 -9 -21 4 -44 9 -16 22 -41 30 -56 8 -15 19
-30 24 -34 6 -3 14 -16 19 -28 7 -17 9 -17 9 -3 1 24 25 21 60 -9 19 -16 31
-35 31 -50 0 -13 4 -24 10 -24 5 0 23 -13 39 -29 34 -33 103 -50 126 -31 11 9
15 9 15 1 0 -18 38 -13 50 7 9 13 10 10 4 -17 -4 -21 -2 -31 4 -27 5 3 13 31
17 63 6 46 13 63 40 90 18 18 40 33 49 33 9 0 16 4 16 10 0 5 7 7 16 3 15 -5
15 -7 -1 -15 -15 -9 -15 -11 5 -25 16 -11 56 -17 134 -20 126 -6 155 -13 48
-13 -59 0 -70 -3 -66 -15 5 -12 -2 -15 -32 -15 -29 0 -35 -3 -24 -10 8 -5 39
-10 68 -10 28 0 52 -4 52 -10 0 -21 -168 2 -186 25 -22 29 -69 7 -76 -34 -2
-20 4 -26 32 -37 19 -7 48 -13 63 -13 19 -1 30 -8 36 -23 8 -20 10 -21 16 -5
6 14 21 17 94 17 47 0 110 -3 139 -6 l52 -7 2 -41 1 -41 4 43 4 42 52 2 c152
4 146 5 152 -20 3 -12 10 -20 16 -16 6 3 8 13 4 22 -3 8 0 19 7 24 18 11 48
10 48 -2 0 -5 -7 -10 -15 -10 -8 0 -15 -4 -15 -10 0 -12 3 -12 24 -4 9 3 16
13 16 21 0 10 7 14 19 10 11 -3 22 1 25 8 2 7 15 15 28 17 13 3 32 9 42 13 16
7 18 5 13 -8 -3 -9 -2 -17 3 -17 6 0 10 -5 10 -11 0 -17 73 -99 88 -99 12 0
11 5 -2 25 -19 29 -15 30 45 10 24 -8 50 -25 58 -37 12 -19 11 -24 -7 -38 -54
-44 -277 -101 -389 -99 -47 1 -59 3 -38 8 69 15 -5 21 -207 17 -251 -5 -233
-5 -226 -12 4 -3 46 -8 95 -11 142 -9 111 -16 -42 -10 -199 9 -401 52 -460 99
-27 21 -31 18 -15 -12 6 -11 6 -42 -1 -86 -5 -38 -11 -84 -13 -101 -2 -35 -16
-58 -16 -29 0 12 -5 16 -15 12 -20 -7 -19 4 1 18 13 10 11 12 -10 14 -14 1
-26 -3 -26 -8 0 -6 -7 -10 -15 -10 -8 0 -15 -5 -15 -11 0 -6 -7 -9 -15 -5 -17
6 -21 -9 -5 -19 19 -12 10 -21 -21 -19 -17 1 -37 10 -45 21 -15 17 -15 17 -11
-4 3 -13 1 -25 -4 -28 -4 -3 -6 -18 -3 -34 7 -31 -4 -39 -48 -37 -14 1 -24 -2
-22 -6 3 -4 -4 -12 -15 -17 -28 -16 -33 -14 -21 8 7 14 7 22 -2 27 -6 4 -9 3
-5 -2 3 -5 -1 -18 -9 -29 -13 -18 -15 -18 -31 -2 -10 9 -12 17 -6 17 6 0 14
-6 16 -12 3 -8 6 -6 6 5 1 9 -3 17 -9 17 -5 0 -10 8 -11 18 0 13 -2 14 -6 2
-8 -19 -24 -30 -36 -23 -4 2 -3 11 4 19 13 16 15 15 -74 18 l-58 1 31 -15 c27
-12 32 -12 40 0 5 8 13 11 17 6 4 -5 2 -11 -5 -13 -10 -4 -10 -8 -1 -19 8 -9
8 -14 1 -14 -6 0 -14 5 -17 10 -4 6 -12 10 -18 9 -7 -1 -27 2 -45 6 -24 6 -30
10 -20 16 12 8 8 8 -41 0 -10 -2 64 -61 75 -61 20 0 84 -32 84 -42 0 -5 -15
-2 -34 6 -18 8 -55 13 -81 11 -43 -3 -105 19 -105 37 0 3 -11 1 -25 -5 -14 -7
-23 -16 -21 -22 5 -15 -23 -67 -33 -60 -16 9 -19 55 -5 55 19 0 17 17 -2 24
-9 4 -24 0 -34 -9 -26 -23 -43 -20 -29 6 10 19 9 21 -8 17 -11 -3 -28 -1 -37
4 -10 6 -16 5 -16 -1 0 -6 -6 -8 -14 -5 -7 3 -16 -1 -19 -9 -3 -9 -21 -18 -39
-22 -38 -8 -79 -41 -72 -59 6 -16 -36 -40 -48 -28 -7 7 -3 12 11 17 12 3 18
11 15 17 -4 6 1 17 10 23 15 12 13 15 -17 34 -19 12 -39 21 -46 21 -6 0 -11 5
-11 10 0 6 -9 10 -20 10 -11 0 -21 -4 -21 -10 -1 -5 -2 -14 -3 -19 -2 -18 -16
-24 -16 -8 0 10 -5 14 -15 11 -10 -4 -15 0 -15 12 0 16 -2 16 -10 4 -5 -8 -12
-12 -15 -8 -3 3 2 13 11 22 15 16 18 16 35 0 11 -9 19 -12 19 -6 0 6 21 12 48
14 42 3 47 6 50 29 4 34 -22 57 -43 39 -13 -10 -20 -11 -39 -1 -20 11 -26 10
-52 -14 l-29 -27 -5 33 c-4 28 -10 34 -32 37 -14 1 -29 -2 -33 -8 -4 -7 -11
-7 -18 -2 -19 14 -194 35 -234 27 -47 -9 -72 -25 -65 -43 4 -11 -1 -10 -22 4
-18 11 -49 18 -85 19 -72 3 -71 2 -65 20 4 9 1 15 -7 15 -8 0 -25 3 -38 7 -20
5 -23 3 -18 -10 9 -24 -7 -21 -58 8 -25 15 -46 22 -49 16 -4 -5 -20 -8 -36 -6
-17 2 -30 0 -30 -5 0 -5 -24 2 -52 14 -48 21 -57 22 -96 11 -36 -11 -45 -11
-57 2 -18 18 -36 8 -28 -14 4 -11 2 -14 -5 -9 -6 4 -20 3 -29 -3 -24 -12 -56
10 -47 33 6 16 -7 22 -20 9 -10 -10 -65 -12 -71 -3 -3 4 -23 3 -44 -2 -27 -7
-45 -7 -58 1 -10 6 -12 11 -5 11 6 0 12 9 12 19 0 11 6 26 13 33 17 18 17 140
0 133 -7 -2 -13 2 -13 9 0 15 21 26 51 26 10 0 19 6 19 14 0 18 69 27 92 12
12 -7 27 -7 53 3 31 11 39 10 59 -3 13 -8 27 -12 31 -8 14 14 89 30 119 25 24
-4 49 3 90 23 48 23 59 26 79 15 20 -11 29 -9 60 9 20 12 39 30 42 41 3 10 12
18 18 16 11 -2 12 14 4 67 -2 11 -13 23 -25 27 -12 5 -22 15 -22 24 0 9 -9 15
-25 15 -27 0 -30 9 -16 57 8 29 7 32 -20 43 -16 7 -35 10 -44 6 -27 -10 -43 5
-51 47 -6 37 -8 39 -15 19 -5 -12 -25 -30 -46 -40 -21 -9 -40 -20 -43 -24 -3
-4 -32 -14 -63 -22 -32 -8 -71 -26 -87 -40 -35 -29 -79 -40 -125 -32 -32 6
-38 14 -59 79 -7 20 33 111 62 142 10 11 29 39 42 63 13 23 28 42 34 42 5 0 6
3 3 6 -3 4 -2 14 3 24 5 10 11 38 14 63 2 25 7 50 11 56 3 6 1 11 -4 11 -6 0
-11 10 -11 23 0 28 -17 47 -36 40 -8 -3 -14 0 -14 6 0 6 6 11 13 11 8 1 7 4
-3 13 -21 17 -23 37 -5 51 14 10 14 18 3 61 -15 58 -44 92 -85 98 -25 4 -26 5
-7 11 20 7 20 8 -8 36 -15 16 -28 37 -28 48 0 11 -3 22 -7 24 -7 3 -40 66 -45
86 -1 4 -7 12 -14 19 -6 6 -9 23 -7 37 4 19 1 26 -11 26 -9 0 -16 7 -16 16 0
8 -15 21 -33 29 -19 8 -40 21 -47 30 -12 14 -17 12 -52 -22 -42 -41 -43 -41
-24 38 14 64 6 85 -40 104 -21 8 -11 10 58 12 71 2 301 38 375 59 16 4 23 1
28 -15 8 -26 20 -26 46 0 17 17 23 18 36 8 13 -12 12 -14 -12 -22 -24 -8 -27
-13 -22 -42 6 -35 -19 -101 -47 -124 -23 -19 -74 2 -57 23 9 10 4 22 -21 49
-55 60 -121 58 -153 -4 -19 -37 -15 -62 20 -114 16 -23 22 -40 16 -44 -6 -4
-5 -17 4 -36 7 -17 16 -42 19 -57 4 -16 40 -56 98 -109 98 -86 117 -113 118
-167 0 -30 2 -32 21 -21 12 6 52 41 91 78 l70 66 -36 62 c-20 34 -57 82 -83
107 l-48 45 34 68 c18 37 39 88 46 113 7 25 16 53 20 63 6 14 2 17 -19 17 -23
0 -26 3 -20 25 4 18 1 27 -10 31 -10 4 -16 18 -16 35 0 16 -5 29 -11 29 -7 0
-9 -9 -6 -21 4 -15 -1 -22 -19 -30 -40 -15 -64 -11 -34 6 29 16 19 20 -11 5
-15 -9 -21 -7 -26 5 -4 11 -13 15 -27 10 -75 -22 -301 -55 -365 -53 -46 1 -60
3 -36 5 22 3 48 13 58 24 10 10 24 19 32 19 8 0 15 5 15 12 0 18 148 158 167
158 23 0 63 39 56 56 -3 8 0 14 6 14 6 0 11 -5 11 -11 0 -6 12 -2 28 9 15 11
38 23 52 27 14 4 36 14 49 22 13 8 34 13 48 10 18 -3 23 0 22 12 -3 30 1 33
24 19 12 -8 42 -18 65 -22z m2638 -43 c-2 -2 -28 -6 -57 -9 -29 -2 -56 -9 -59
-15 -4 -5 -15 -7 -26 -3 -10 4 -16 3 -12 -1 13 -14 -52 -48 -66 -35 -9 7 -18
4 -31 -10 -17 -18 -17 -20 -2 -14 9 3 17 11 17 17 0 6 3 8 6 4 3 -3 -8 -23
-24 -44 -17 -21 -34 -51 -38 -67 l-7 -28 54 7 c82 11 48 -8 -60 -34 -52 -13
-123 -38 -158 -56 -35 -18 -63 -30 -63 -26 0 10 61 48 105 67 44 18 55 29 55
59 0 28 84 122 129 144 20 10 70 26 111 36 41 9 80 18 85 19 14 4 47 -5 41
-11z m192 0 c-16 -2 -40 -2 -55 0 -16 2 -3 4 27 4 30 0 43 -2 28 -4z m92 -3
c0 -5 -12 -10 -26 -10 -14 0 -23 4 -19 10 3 6 15 10 26 10 10 0 19 -4 19 -10z
m70 -10 c20 -6 21 -8 5 -8 -11 0 -31 4 -45 8 -20 6 -21 8 -5 8 11 0 31 -4 45
-8z m-3380 -26 c0 -3 -7 -12 -15 -20 -16 -17 -18 -14 -9 10 6 15 24 23 24 10z
m3479 -9 c39 -20 98 -90 112 -134 16 -49 22 -56 77 -76 49 -18 76 -35 68 -42
-2 -2 -32 10 -68 26 -35 17 -97 37 -138 46 -89 19 -98 25 -36 25 45 0 46 1 40
28 -3 15 -15 40 -26 56 -12 17 -15 26 -7 22 8 -4 -4 9 -26 28 -43 38 -41 45 4
21z m-1924 -15 c3 -5 1 -10 -4 -10 -6 0 -11 5 -11 10 0 6 2 10 4 10 3 0 8 -4
11 -10z m1375 -80 c0 -5 -12 -10 -26 -10 -14 0 -23 4 -19 10 3 6 15 10 26 10
10 0 19 -4 19 -10z m-659 -100 c13 -35 8 -34 119 -34 80 -1 85 -2 88 -23 3
-21 -1 -23 -42 -23 -25 0 -46 -4 -46 -10 0 -5 -7 -10 -15 -10 -8 0 -15 6 -15
14 0 17 33 30 58 22 9 -3 23 -2 31 3 10 7 6 10 -15 15 -35 7 -90 -7 -86 -23 1
-6 -5 -11 -14 -11 -9 0 -12 -5 -8 -12 5 -8 2 -9 -9 -5 -20 7 -23 -8 -4 -17 6
-4 -4 -4 -23 -1 -25 4 -31 2 -20 -5 9 -6 11 -13 5 -17 -6 -5 -16 -20 -24 -36
-22 -41 -37 -18 -22 33 8 28 20 44 37 50 l25 10 -25 22 c-14 13 -26 30 -27 38
-6 55 16 68 32 20z m1750 7 c-10 -9 -11 -8 -5 6 3 10 9 15 12 12 3 -3 0 -11
-7 -18z m-1142 9 c-2 -2 -33 -6 -69 -9 -41 -4 -56 -3 -40 3 25 8 117 14 109 6z
m-146 -23 c-7 -2 -19 -2 -25 0 -7 3 -2 5 12 5 14 0 19 -2 13 -5z m167 -13 c11
-7 3 -10 -30 -10 -25 0 -56 -3 -70 -7 -14 -3 -22 -3 -18 2 7 7 61 22 88 24 8
0 22 -4 30 -9z m927 -25 c-18 -19 -23 -21 -25 -8 -4 16 14 33 35 33 6 0 2 -11
-10 -25z m-1189 -16 c-5 -14 -79 -40 -95 -34 -7 2 -15 0 -18 -5 -8 -12 -25
-13 -25 -1 0 4 28 17 63 29 74 24 80 25 75 11z m1018 -4 c10 -8 14 -15 7 -15
-19 0 -43 11 -43 21 0 13 14 11 36 -6z m-783 -12 c-13 -2 -35 -2 -50 0 -16 2
-5 4 22 4 28 0 40 -2 28 -4z m-399 -39 c9 -8 16 -19 16 -24 0 -5 27 -8 59 -6
33 1 58 -1 55 -6 -3 -4 -14 -8 -25 -8 -11 0 -17 -4 -14 -10 3 -5 -3 -10 -14
-10 -13 0 -21 7 -21 17 0 15 -1 15 -13 -2 -9 -11 -19 -15 -27 -10 -9 6 -11 4
-5 -5 5 -8 3 -11 -6 -8 -8 3 -14 11 -15 19 -3 33 -18 58 -38 62 -17 4 -16 5 6
6 15 0 34 -6 42 -15z m143 0 c-3 -3 -12 -4 -19 -1 -8 3 -5 6 6 6 11 1 17 -2
13 -5z m-40 -10 c-3 -3 -12 -4 -19 -1 -8 3 -5 6 6 6 11 1 17 -2 13 -5z m284
-96 c-8 -27 -18 -48 -23 -48 -11 0 -10 21 3 58 9 25 8 36 -5 54 -26 37 -18 45
12 13 27 -30 27 -30 13 -77z m43 84 c-13 -13 -22 -15 -30 -8 -17 16 -7 26 23
26 26 0 26 0 7 -18z m106 1 c0 -10 3 -29 5 -43 5 -22 3 -21 -9 5 -18 36 -20
55 -6 55 6 0 10 -8 10 -17z m273 10 c-7 -2 -19 -2 -25 0 -7 3 -2 5 12 5 14 0
19 -2 13 -5z m-473 -13 c0 -5 -2 -10 -4 -10 -3 0 -8 5 -11 10 -3 6 -1 10 4 10
6 0 11 -4 11 -10z m-1080 -10 c0 -5 -4 -10 -10 -10 -5 0 -10 5 -10 10 0 6 5
10 10 10 6 0 10 -4 10 -10z m1075 -28 c-6 -7 -35 18 -35 31 0 5 9 2 20 -8 11
-10 18 -20 15 -23z m-523 -14 c-6 -6 -12 -6 -16 1 -4 6 -3 11 3 11 6 0 8 8 5
18 -5 15 -4 15 6 -1 8 -13 9 -22 2 -29z m828 39 c0 -2 -10 -12 -22 -23 l-23
-19 19 23 c18 21 26 27 26 19z m-190 -27 c0 -5 -2 -10 -4 -10 -3 0 -8 5 -11
10 -3 6 -1 10 4 10 6 0 11 -4 11 -10z m-622 -30 c-49 -40 -74 -129 -65 -234 8
-90 17 -116 68 -186 l40 -55 -50 53 c-73 76 -95 179 -68 311 17 78 14 109 -8
91 -10 -8 -15 -8 -21 1 -4 8 -3 9 4 5 7 -4 12 -2 12 4 0 7 -6 10 -12 7 -7 -2
-11 -11 -9 -18 2 -8 4 -21 4 -29 0 -8 3 -19 7 -25 4 -5 3 -21 -1 -35 l-7 -25
-1 26 c-1 15 -8 45 -16 68 -13 39 -13 41 6 52 17 9 25 6 46 -17 l26 -28 26 31
c14 17 33 32 41 32 8 1 -2 -12 -22 -29z m284 8 c-7 -7 -12 -8 -12 -2 0 14 12
26 19 19 2 -3 -1 -11 -7 -17z m-14 -73 l0 -30 -12 33 c-6 18 -15 30 -19 25 -8
-7 -5 7 10 45 5 13 8 11 13 -13 4 -16 8 -43 8 -60z m245 49 c-10 -26 17 -64
41 -59 45 11 126 9 126 -2 0 -5 -25 -8 -55 -8 -30 1 -55 -3 -55 -7 0 -3 -15
-4 -34 -1 -25 4 -35 1 -39 -11 -7 -19 4 -21 21 -4 9 9 12 9 12 0 0 -18 -26
-25 -47 -13 -12 7 -14 10 -4 11 11 0 10 5 -4 20 -15 16 -15 20 -3 15 12 -5 17
3 22 34 3 23 11 41 16 41 5 0 7 -7 3 -16z m137 -7 c-10 -8 -80 -16 -80 -8 0 4
19 8 42 10 23 1 40 0 38 -2z m681 -20 c-10 -9 -11 -8 -5 6 3 10 9 15 12 12 3
-3 0 -11 -7 -18z m79 14 c0 -6 -4 -13 -10 -16 -5 -3 -10 1 -10 9 0 9 5 16 10
16 6 0 10 -4 10 -9z m-1045 -11 c-3 -5 -12 -10 -18 -10 -7 0 -6 4 3 10 19 12
23 12 15 0z m83 -25 c-3 -3 -9 2 -12 12 -6 14 -5 15 5 6 7 -7 10 -15 7 -18z
m-2584 -1 c8 -20 8 -19 -27 -28 -19 -4 -26 -3 -22 4 3 5 13 10 22 10 9 0 13 6
9 15 -3 8 -1 15 3 15 5 0 12 -7 15 -16z m2556 -6 c0 -30 -15 -54 -24 -39 -4 6
-3 11 2 11 5 0 7 11 4 25 -2 15 0 25 7 25 6 0 11 -10 11 -22z m-640 8 c0 -3
-4 -8 -10 -11 -5 -3 -10 -1 -10 4 0 6 5 11 10 11 6 0 10 -2 10 -4z m-1997 -26
c-3 -11 -9 -20 -15 -20 -5 0 -4 9 2 20 6 11 12 20 14 20 2 0 2 -9 -1 -20z
m1877 16 c0 -3 -4 -8 -10 -11 -5 -3 -10 -1 -10 4 0 6 5 11 10 11 6 0 10 -2 10
-4z m1147 -18 c-3 -8 -6 -5 -6 6 -1 11 2 17 5 13 3 -3 4 -12 1 -19z m-1297 -4
c0 -8 -5 -12 -10 -9 -6 4 -8 11 -5 16 9 14 15 11 15 -7z m-1775 -4 c3 -6 -1
-7 -9 -4 -18 7 -21 14 -7 14 6 0 13 -4 16 -10z m3690 -42 c-2 -29 -7 -96 -10
-148 -9 -135 -24 -191 -19 -70 3 64 1 88 -5 75 -9 -18 -10 -17 -12 10 -1 17
-3 40 -4 52 -1 12 6 39 16 60 9 21 20 46 23 56 10 33 15 17 11 -35z m-3569 27
c-23 -17 -36 -19 -36 -6 0 5 8 12 18 14 32 9 37 6 18 -8z m2509 6 c-5 -10 -64
-26 -78 -23 -14 4 -19 -26 -8 -47 13 -24 16 -316 3 -350 -7 -20 -9 -21 -21 -7
-9 11 -10 16 -2 16 6 0 11 9 11 20 0 12 -7 20 -17 20 -12 0 -14 3 -6 8 9 5 9
33 3 107 -5 55 -9 132 -10 172 l0 72 28 -1 c15 0 38 5 52 10 32 14 53 15 45 3z
m200 -9 c-3 -3 -11 0 -18 7 -9 10 -8 11 6 5 10 -3 15 -9 12 -12z m755 9 c0 -5
-9 -7 -20 -4 -11 3 -20 7 -20 9 0 2 9 4 20 4 11 0 20 -4 20 -9z m225 -9 c-3
-3 -11 0 -18 7 -9 10 -8 11 6 5 10 -3 15 -9 12 -12z m-1390 -2 c-28 -12 -37
-12 -30 0 3 6 16 10 28 9 21 0 21 -1 2 -9z m446 -32 c-4 -32 -5 -32 -11 -8 -5
19 2 37 16 40 0 0 -2 -15 -5 -32z m-67 7 c-10 -8 -23 -14 -29 -14 -5 0 -1 6 9
14 11 8 24 15 30 15 5 0 1 -7 -10 -15z m-179 -5 c3 -6 -1 -13 -10 -16 -19 -8
-30 0 -20 15 8 14 22 14 30 1z m-725 -20 c0 -5 -4 -10 -10 -10 -5 0 -10 5 -10
10 0 6 5 10 10 10 6 0 10 -4 10 -10z m2137 -52 c-2 -13 -4 -3 -4 22 0 25 2 35
4 23 2 -13 2 -33 0 -45z m-1169 15 c-10 -2 -28 -2 -40 0 -13 2 -5 4 17 4 22 1
32 -1 23 -4z m-1048 -38 c0 -8 -4 -15 -10 -15 -5 0 -10 7 -10 15 0 8 5 15 10
15 6 0 10 -7 10 -15z m260 -16 c0 -6 -4 -7 -10 -4 -5 3 -10 11 -10 16 0 6 5 7
10 4 6 -3 10 -11 10 -16z m-100 1 c0 -5 -4 -10 -10 -10 -5 0 -10 5 -10 10 0 6
5 10 10 10 6 0 10 -4 10 -10z m-170 -30 c0 -5 -4 -10 -10 -10 -5 0 -10 5 -10
10 0 6 5 10 10 10 6 0 10 -4 10 -10z m90 0 c0 -5 -2 -10 -4 -10 -3 0 -8 5 -11
10 -3 6 -1 10 4 10 6 0 11 -4 11 -10z m1749 -117 c0 -64 -3 -91 -9 -78 -12 28
-12 175 0 175 6 0 10 -39 9 -97z m-1799 77 c0 -5 -5 -10 -11 -10 -5 0 -7 5 -4
10 3 6 8 10 11 10 2 0 4 -4 4 -10z m260 -4 c0 -3 -4 -8 -10 -11 -5 -3 -10 -1
-10 4 0 6 5 11 10 11 6 0 10 -2 10 -4z m-2102 -96 c-14 -22 -24 -19 -15 5 4 8
11 15 17 15 6 0 6 -7 -2 -20z m-68 -14 c0 -8 8 -16 18 -19 16 -4 16 -4 0 -11
-11 -5 -24 0 -37 13 -26 26 -26 31 -1 31 11 0 20 -6 20 -14z m30 4 c0 -5 -5
-10 -11 -10 -5 0 -7 5 -4 10 3 6 8 10 11 10 2 0 4 -4 4 -10z m1945 0 c3 -5 -1
-10 -9 -10 -9 0 -16 5 -16 10 0 6 4 10 9 10 6 0 13 -4 16 -10z m524 -95 c2 -3
-16 2 -41 11 -25 8 -53 23 -62 33 -12 13 0 10 41 -11 31 -16 59 -31 62 -33z
m176 -139 c8 -44 19 -84 25 -90 5 -5 10 -14 10 -18 0 -19 -37 33 -64 88 -26
57 -28 65 -20 140 l7 79 14 -60 c7 -33 20 -96 28 -139z m-2605 148 c0 -8 -4
-12 -10 -9 -5 3 -10 10 -10 16 0 5 5 9 10 9 6 0 10 -7 10 -16z m3647 -6 c-3
-8 -6 -5 -6 6 -1 11 2 17 5 13 3 -3 4 -12 1 -19z m-4339 -44 c-4 -3 -12 5 -18
18 -12 22 -12 22 6 6 10 -10 15 -20 12 -24z m4309 -11 c-3 -10 -5 -4 -5 12 0
17 2 24 5 18 2 -7 2 -21 0 -30z m-1523 6 c-6 -11 -24 -2 -24 11 0 5 7 7 15 4
8 -4 12 -10 9 -15z m56 -9 c0 -5 -2 -10 -4 -10 -3 0 -8 5 -11 10 -3 6 -1 10 4
10 6 0 11 -4 11 -10z m1467 -62 c-3 -8 -6 -5 -6 6 -1 11 2 17 5 13 3 -3 4 -12
1 -19z m-17 -48 c-6 -12 -14 -19 -17 -17 -2 3 1 15 7 27 6 12 14 19 17 17 2
-3 -1 -15 -7 -27z m-1545 -20 c3 -5 1 -10 -4 -10 -6 0 -11 5 -11 10 0 6 2 10
4 10 3 0 8 -4 11 -10z m65 -5 c0 -8 -4 -15 -9 -15 -13 0 -22 16 -14 24 11 11
23 6 23 -9z m605 -25 c3 -5 1 -10 -4 -10 -6 0 -11 5 -11 10 0 6 2 10 4 10 3 0
8 -4 11 -10z m855 0 c0 -5 -5 -10 -11 -10 -5 0 -7 5 -4 10 3 6 8 10 11 10 2 0
4 -4 4 -10z m-1495 -30 c3 -5 2 -10 -4 -10 -5 0 -13 5 -16 10 -3 6 -2 10 4 10
5 0 13 -4 16 -10z m495 -20 c0 -5 -4 -10 -10 -10 -5 0 -10 5 -10 10 0 6 5 10
10 10 6 0 10 -4 10 -10z m51 -7 c13 -16 12 -17 -3 -4 -17 13 -22 21 -14 21 2
0 10 -8 17 -17z m-616 -3 c3 -5 1 -10 -4 -10 -6 0 -11 5 -11 10 0 6 2 10 4 10
3 0 8 -4 11 -10z m115 -15 c0 -8 -7 -15 -16 -15 -14 0 -14 3 -4 15 7 8 14 15
16 15 2 0 4 -7 4 -15z m765 -5 c4 -6 -6 -10 -22 -10 -22 0 -25 2 -13 10 19 12
27 12 35 0z m450 0 c4 -6 -6 -10 -22 -9 -25 0 -26 1 -8 9 11 5 21 9 22 9 1 1
5 -3 8 -9z m40 -11 c-10 -15 -25 -10 -19 6 4 8 10 12 15 9 5 -3 7 -10 4 -15z
m-570 1 c3 -5 1 -10 -4 -10 -6 0 -11 5 -11 10 0 6 2 10 4 10 3 0 8 -4 11 -10z
m-625 -10 c0 -5 -4 -10 -10 -10 -5 0 -10 5 -10 10 0 6 5 10 10 10 6 0 10 -4
10 -10z m-130 -30 c0 -5 -2 -10 -4 -10 -3 0 -8 5 -11 10 -3 6 -1 10 4 10 6 0
11 -4 11 -10z m150 -20 c0 -5 -5 -10 -11 -10 -5 0 -7 5 -4 10 3 6 8 10 11 10
2 0 4 -4 4 -10z m-110 -20 c0 -5 -2 -10 -4 -10 -3 0 -8 5 -11 10 -3 6 -1 10 4
10 6 0 11 -4 11 -10z m160 -20 c0 -5 -2 -10 -4 -10 -3 0 -8 5 -11 10 -3 6 -1
10 4 10 6 0 11 -4 11 -10z m-39 -33 c-1 -12 -15 -9 -19 4 -3 6 1 10 8 8 6 -3
11 -8 11 -12z m-16 -37 c3 -5 1 -10 -4 -10 -6 0 -11 5 -11 10 0 6 2 10 4 10 3
0 8 -4 11 -10z m884 -22 c-1 -18 -5 -44 -9 -58 -6 -19 -8 -11 -9 33 -1 32 3
57 9 57 6 0 10 -15 9 -32z m71 22 c0 -5 -2 -10 -4 -10 -3 0 -8 5 -11 10 -3 6
-1 10 4 10 6 0 11 -4 11 -10z m224 -110 c5 -16 1 -12 -8 9 -9 18 -15 52 -15
75 l2 41 7 -50 c4 -27 11 -61 14 -75z m-368 94 c-3 -9 -6 -48 -7 -87 -1 -46
-4 -63 -8 -47 l-7 25 -14 -32 c-15 -32 -35 -48 -24 -18 4 8 2 15 -4 15 -6 0
-13 -6 -15 -12 -3 -7 -6 -1 -6 15 -1 29 -21 38 -21 10 -1 -17 -30 -65 -30 -49
0 15 32 121 40 131 4 6 10 19 13 30 2 11 5 1 6 -22 0 -24 5 -43 10 -43 5 0 12
-10 14 -22 3 -17 5 -14 6 10 1 36 21 45 22 10 0 -13 3 -17 6 -10 3 7 -1 27 -8
44 -10 24 -10 33 -1 36 7 2 12 10 12 18 0 8 5 14 11 14 6 0 8 -7 5 -16z m263
-57 c1 -16 -3 -26 -9 -22 -5 3 -10 27 -9 53 1 38 2 42 9 22 4 -14 8 -38 9 -53z
m57 -22 c6 -29 6 -29 -10 -10 -9 12 -15 38 -15 65 l1 45 9 -35 c4 -19 11 -48
15 -65z m-182 20 c3 -31 2 -43 -3 -30 -8 19 -9 18 -13 -5 -3 -14 -6 4 -7 40
-1 74 14 71 23 -5z m-99 -43 c-12 -12 -24 22 -14 39 5 10 10 28 11 41 1 13 3
1 5 -26 2 -26 1 -51 -2 -54z m366 28 c5 0 9 10 10 23 0 21 1 21 9 2 12 -28 12
-47 0 -40 -5 3 -10 1 -10 -6 0 -7 -7 -4 -15 7 -8 10 -14 35 -13 54 l1 35 4
-37 c2 -21 8 -38 14 -38z m-195 1 c1 -8 -4 -20 -12 -28 -12 -13 -14 -7 -13 39
0 47 1 50 11 28 6 -14 12 -31 14 -39z m-346 7 c0 -25 -3 -29 -10 -18 -8 12
-10 12 -10 1 0 -8 -2 -12 -5 -9 -4 4 16 58 23 58 1 0 2 -15 2 -32z m-49 -24
c-8 -25 -9 -26 -10 -6 -1 13 -5 20 -11 17 -5 -3 -10 -2 -10 4 0 8 29 21 37 16
1 0 -2 -14 -6 -31z m-101 -6 c-9 -18 -6 -17 14 7 20 23 26 26 26 13 0 -10 -5
-18 -11 -18 -5 0 -15 -13 -20 -29 -6 -16 -17 -32 -24 -35 -10 -3 -12 0 -8 12
6 16 5 16 -13 0 -12 -11 -28 -15 -42 -11 -29 7 -28 21 2 33 13 5 32 19 41 32
15 20 17 20 11 3 -5 -17 -4 -17 11 3 20 28 29 22 13 -10z m57 10 c-3 -8 -6 -5
-6 6 -1 11 2 17 5 13 3 -3 4 -12 1 -19z m739 -44 c13 -3 24 -10 24 -14 0 -10
-26 -20 -48 -20 -13 0 -14 2 -3 9 9 6 10 11 2 15 -6 4 -15 5 -19 2 -4 -2 -8 3
-9 12 -1 9 -4 28 -8 42 -6 22 -4 21 15 -8 12 -17 33 -35 46 -38z m-439 -11
c-3 -10 -5 -2 -5 17 0 19 2 27 5 18 2 -10 2 -26 0 -35z m-3437 17 c0 -5 -4
-10 -10 -10 -5 0 -10 5 -10 10 0 6 5 10 10 10 6 0 10 -4 10 -10z m3407 -12
c-3 -8 -6 -5 -6 6 -1 11 2 17 5 13 3 -3 4 -12 1 -19z m203 16 c0 -3 -7 -12
-15 -20 -8 -8 -12 -21 -9 -29 4 -8 2 -15 -4 -15 -5 0 -12 7 -16 15 -3 8 -2 15
3 15 5 0 11 9 14 20 4 18 27 29 27 14z m-920 -42 c0 -7 -4 -10 -10 -7 -5 3
-10 16 -10 28 0 18 2 19 10 7 5 -8 10 -21 10 -28z m975 18 c3 -5 1 -10 -4 -10
-6 0 -11 5 -11 10 0 6 2 10 4 10 3 0 8 -4 11 -10z m-475 -14 c0 -3 -4 -8 -10
-11 -5 -3 -10 -1 -10 4 0 6 5 11 10 11 6 0 10 -2 10 -4z m-2370 -21 c0 -8 -4
-15 -10 -15 -5 0 -10 7 -10 15 0 8 5 15 10 15 6 0 10 -7 10 -15z m2385 -15 c3
-5 2 -10 -4 -10 -5 0 -13 5 -16 10 -3 6 -2 10 4 10 5 0 13 -4 16 -10z m595 6
c0 -3 -4 -8 -10 -11 -5 -3 -10 -1 -10 4 0 6 5 11 10 11 6 0 10 -2 10 -4z
m-2948 -28 c-7 -7 -12 -8 -12 -2 0 14 12 26 19 19 2 -3 -1 -11 -7 -17z m2438
2 c0 -5 -4 -10 -10 -10 -5 0 -10 5 -10 10 0 6 5 10 10 10 6 0 10 -4 10 -10z
m558 -6 c31 -21 44 -49 36 -79 -6 -26 -7 -26 -25 -6 -26 28 -60 37 -73 19 -6
-8 -41 -22 -78 -31 -78 -20 -78 -20 -78 -8 0 4 19 13 43 18 35 9 37 11 14 12
-18 1 -26 5 -21 12 3 6 17 9 30 6 14 -2 26 -1 29 3 2 4 24 7 49 7 51 1 66 8
66 30 0 9 -6 13 -15 9 -9 -3 -15 0 -15 9 0 19 10 19 38 -1z m-3833 -4 c3 -5 1
-10 -4 -10 -6 0 -11 5 -11 10 0 6 2 10 4 10 3 0 8 -4 11 -10z m3330 0 c4 -6
-6 -10 -22 -10 -22 0 -25 2 -13 10 19 12 27 12 35 0z m52 -6 c-3 -3 -12 -4
-19 -1 -8 3 -5 6 6 6 11 1 17 -2 13 -5z m268 -24 c3 -5 1 -10 -4 -10 -6 0 -11
5 -11 10 0 6 2 10 4 10 3 0 8 -4 11 -10z m-2845 -9 c0 -5 -13 -15 -29 -22 -17
-8 -27 -18 -24 -26 3 -7 0 -13 -6 -13 -6 0 -11 4 -11 8 0 5 -12 13 -27 19
l-28 11 36 1 c19 1 44 8 55 16 22 17 34 19 34 6z m2788 2 c-10 -2 -26 -2 -35
0 -10 3 -2 5 17 5 19 0 27 -2 18 -5z m-3013 -23 c3 -5 -1 -10 -9 -10 -8 0 -18
5 -21 10 -3 6 1 10 9 10 8 0 18 -4 21 -10z m3055 0 c0 -5 -7 -10 -16 -10 -8 0
-12 5 -9 10 3 6 10 10 16 10 5 0 9 -4 9 -10z m-4924 -127 c-10 -10 -19 5 -10
18 6 11 8 11 12 0 2 -7 1 -15 -2 -18z m1264 -3 c0 -5 -7 -10 -15 -10 -8 0 -15
5 -15 10 0 6 7 10 15 10 8 0 15 -4 15 -10z m195 -61 c10 -10 11 -19 5 -29 -7
-11 -10 -11 -10 -2 0 9 -5 10 -18 3 -22 -12 -95 -13 -322 -7 -198 6 -241 10
-267 24 -40 23 15 27 350 26 200 0 251 -3 262 -15z m43 -37 c2 -7 -4 -15 -13
-18 -20 -8 -27 -1 -19 20 7 18 25 17 32 -2z m-48 -12 c0 -5 -5 -10 -11 -10 -5
0 -7 -4 -4 -10 3 -5 1 -10 -4 -10 -13 0 -13 3 -5 24 7 18 24 22 24 6z m360
-231 c0 -6 -4 -7 -10 -4 -5 3 -10 11 -10 16 0 6 5 7 10 4 6 -3 10 -11 10 -16z
m269 -2 c6 -8 8 -17 4 -20 -7 -8 -33 11 -33 24 0 13 16 11 29 -4z m1946 -29
c6 -4 2 -8 -7 -8 -10 0 -18 7 -18 17 0 9 3 12 8 7 4 -5 12 -12 17 -16z m-45
-8 c0 -5 -4 -10 -10 -10 -5 0 -10 5 -10 10 0 6 5 10 10 10 6 0 10 -4 10 -10z
m-108 -22 c-7 -7 -12 -8 -12 -2 0 14 12 26 19 19 2 -3 -1 -11 -7 -17z m-1982
-42 c0 -11 -19 -15 -25 -6 -3 5 1 10 9 10 9 0 16 -2 16 -4z m919 -23 c-8 -9
-13 -24 -11 -34 2 -9 -2 -20 -8 -24 -6 -4 -10 4 -10 19 0 35 10 56 27 56 13 0
13 -2 2 -17z m-1014 -3 c3 -5 2 -10 -4 -10 -5 0 -13 5 -16 10 -3 6 -2 10 4 10
5 0 13 -4 16 -10z m2015 -10 c0 -5 -4 -10 -10 -10 -5 0 -10 5 -10 10 0 6 5 10
10 10 6 0 10 -4 10 -10z m-37 -30 c-5 -20 -15 -25 -26 -13 -5 4 18 30 30 33 0
0 -1 -9 -4 -20z m-1973 0 c0 -5 -2 -10 -4 -10 -3 0 -8 5 -11 10 -3 6 -1 10 4
10 6 0 11 -4 11 -10z m1085 0 c3 -5 1 -10 -4 -10 -6 0 -11 5 -11 10 0 6 2 10
4 10 3 0 8 -4 11 -10z m1074 1 c8 -5 9 -11 3 -15 -5 -3 -15 1 -22 9 -14 16 -3
20 19 6z m-1009 -21 c0 -5 -7 -10 -15 -10 -8 0 -15 5 -15 10 0 6 7 10 15 10 8
0 15 -4 15 -10z m-1153 -22 c-3 -8 -6 -5 -6 6 -1 11 2 17 5 13 3 -3 4 -12 1
-19z m1350 6 c-3 -3 -12 -4 -19 -1 -8 3 -5 6 6 6 11 1 17 -2 13 -5z m-377 -24
c0 -5 -4 -10 -10 -10 -5 0 -10 5 -10 10 0 6 5 10 10 10 6 0 10 -4 10 -10z
m1034 -21 c-3 -5 -10 -7 -15 -3 -5 3 -7 10 -3 15 3 5 10 7 15 3 5 -3 7 -10 3
-15z m-324 -4 c9 -10 9 -15 1 -15 -6 0 -11 4 -11 10 0 5 -7 7 -15 4 -8 -4 -15
-1 -15 5 0 16 25 13 40 -4z m50 -5 c-6 -11 -15 -20 -19 -20 -5 0 -7 9 -4 20 3
11 12 20 20 20 11 0 11 -4 3 -20z m-145 -20 c3 -5 2 -10 -4 -10 -5 0 -13 5
-16 10 -3 6 -2 10 4 10 5 0 13 -4 16 -10z"/>
<path d="M2825 2616 c-33 -7 -78 -22 -100 -33 -39 -21 -105 -79 -105 -92 0 -4
42 -1 92 6 51 8 115 13 143 11 l50 -3 3 -177 c2 -148 5 -178 17 -178 12 0 15
30 17 178 l3 177 50 3 c28 2 94 -4 148 -13 55 -9 100 -15 102 -13 10 10 -71
79 -117 101 -95 45 -192 55 -303 33z m-155 -106 c-20 -13 -33 -13 -25 0 3 6
14 10 23 10 15 0 15 -2 2 -10z"/>
<path d="M2205 2540 c14 -27 15 -32 3 -23 -12 11 -15 8 -15 -19 0 -18 -5 -34
-11 -36 -8 -2 -7 -14 4 -40 48 -110 55 -206 25 -324 -25 -95 -66 -178 -128
-255 -49 -60 -137 -144 -172 -163 -18 -9 -19 -12 -4 -41 21 -42 30 -199 13
-238 -6 -17 -22 -37 -35 -45 -12 -8 -37 -40 -54 -71 -18 -31 -53 -77 -78 -102
-39 -40 -45 -51 -45 -86 1 -48 12 -57 73 -57 41 0 48 3 53 23 3 13 24 45 47
71 l42 47 28 -31 c34 -37 49 -32 49 16 0 24 5 37 17 41 10 4 49 37 88 74 91
87 151 136 174 144 18 5 81 77 81 91 0 5 -15 -6 -32 -23 -37 -34 -78 -58 -78
-45 0 5 11 15 25 22 14 7 25 22 25 32 0 37 -81 179 -140 244 -33 36 -60 69
-60 73 0 4 21 34 46 66 56 73 118 198 140 284 24 97 16 240 -18 306 -14 28
-38 61 -53 75 l-28 25 18 -35z m-142 -1057 c-7 -2 -21 -2 -30 0 -10 3 -4 5 12
5 17 0 24 -2 18 -5z m-73 -314 c0 -24 -16 -25 -30 0 -7 14 -6 21 3 24 18 6 27
-2 27 -24z m-188 -72 c16 -25 8 -37 -27 -37 -37 0 -52 17 -41 46 5 12 13 14
33 9 16 -4 31 -12 35 -18z"/>
<path d="M1958 2453 c6 -2 18 -2 25 0 6 3 1 5 -13 5 -14 0 -19 -2 -12 -5z"/>
<path d="M2735 2450 c-16 -4 -24 -8 -17 -9 6 0 12 -9 12 -20 0 -10 6 -24 14
-30 8 -7 17 -25 21 -40 3 -16 17 -43 30 -61 17 -23 23 -42 20 -64 -3 -17 6 10
20 59 13 50 24 109 24 133 l1 42 -47 -1 c-27 -1 -61 -5 -78 -9z"/>
<path d="M2993 2444 c-6 -15 31 -216 48 -260 8 -24 9 -24 51 -7 66 26 114 59
145 99 24 32 28 47 28 98 l0 61 -80 12 c-118 17 -184 16 -192 -3z"/>
<path d="M2586 2399 c-9 -41 11 -99 46 -137 52 -54 178 -114 178 -83 0 6 -10
11 -21 11 -26 0 -100 40 -94 51 3 4 -6 10 -19 13 -17 4 -24 13 -23 26 1 11 6
20 12 20 5 0 2 5 -7 11 -10 5 -18 17 -18 25 0 8 -4 13 -9 9 -13 -7 -23 12 -31
55 l-7 35 -7 -36z"/>
<path d="M1977 2406 c-29 -13 -27 -26 5 -26 10 0 18 -5 18 -11 0 -8 5 -8 15 1
18 15 20 50 3 49 -7 0 -25 -6 -41 -13z"/>
<path d="M2055 2390 c-3 -5 -1 -10 4 -10 15 0 14 -27 0 -32 -8 -3 -6 -10 5
-21 12 -11 15 -24 11 -39 -6 -21 -6 -21 8 -8 27 26 26 67 -2 99 -12 13 -22 18
-26 11z"/>
<path d="M2411 2316 c-6 -16 -9 -31 -6 -34 3 -3 5 0 5 6 0 6 7 9 15 6 17 -7
18 1 5 31 -7 18 -9 18 -19 -9z"/>
<path d="M2665 2270 c3 -5 11 -10 16 -10 6 0 7 5 4 10 -3 6 -11 10 -16 10 -6
0 -7 -4 -4 -10z"/>
<path d="M2060 2220 c0 -4 11 -10 25 -12 14 -3 25 -2 25 2 0 4 -11 10 -25 12
-14 3 -25 2 -25 -2z"/>
<path d="M3195 2060 c-8 -14 -75 -211 -75 -223 0 -4 19 -7 41 -5 l41 3 20 64
c11 35 23 60 27 55 5 -5 16 -33 27 -61 18 -53 18 -53 61 -53 24 0 43 3 43 8 0
4 -20 54 -43 112 l-44 105 -45 3 c-26 2 -49 -2 -53 -8z"/>
<path d="M2740 2039 c-6 -11 -9 -25 -6 -32 2 -7 8 -2 11 11 8 23 25 30 25 10
0 -10 2 -10 8 -1 6 9 11 6 21 -8 7 -12 8 -18 2 -14 -6 3 -11 2 -11 -4 0 -5 5
-13 10 -16 6 -3 10 -11 10 -16 0 -6 -4 -8 -9 -5 -5 3 4 -25 19 -62 27 -66 27
-67 68 -70 23 -2 42 -2 42 0 0 3 -55 137 -83 201 -10 23 -18 27 -54 27 -32 0
-45 -5 -53 -21z m120 -159 c0 -5 -2 -10 -4 -10 -3 0 -8 5 -11 10 -3 6 -1 10 4
10 6 0 11 -4 11 -10z"/>
<path d="M2910 2025 c0 -33 2 -35 35 -35 l35 0 0 -80 0 -80 45 0 45 0 0 79 c0
79 0 80 28 83 22 2 28 8 30 36 l3 32 -110 0 -111 0 0 -35z"/>
<path d="M2771 1943 c-1 -6 -4 -20 -7 -30 -5 -17 -5 -17 6 0 6 10 9 23 6 30
-3 9 -5 9 -5 0z"/>
<path d="M3352 1742 l-112 -3 7 -97 c10 -125 10 -413 0 -519 l-7 -83 219 0
219 0 6 31 c3 17 6 47 6 66 l0 35 -52 -8 c-29 -5 -80 -9 -113 -9 l-60 0 -3
180 c-1 99 1 231 6 293 4 63 5 114 2 115 -3 1 -56 1 -118 -1z"/>
<path d="M2418 1663 c9 -101 9 -480 0 -560 l-8 -63 121 0 120 0 -8 78 c-10 97
-10 476 0 560 l8 62 -120 0 -121 0 8 -77z"/>
<path d="M2705 1390 l0 -350 112 0 112 0 -7 98 c-4 53 -7 122 -7 152 l0 55 80
6 c47 3 96 13 119 24 109 52 149 231 69 307 -54 52 -86 58 -290 58 l-188 0 0
-350z m285 240 c16 -16 20 -33 20 -80 0 -74 -14 -105 -55 -125 -18 -8 -36 -15
-39 -15 -3 0 -6 54 -6 120 l0 120 30 0 c17 0 39 -9 50 -20z"/>
<path d="M2195 1212 c-11 -2 -24 -9 -30 -15 -5 -7 -6 -9 -2 -5 5 3 20 0 35 -8
28 -14 40 -5 25 19 -4 7 -17 11 -28 9z"/>
<path d="M2150 1155 c0 -8 5 -15 10 -15 6 0 10 7 10 15 0 8 -4 15 -10 15 -5 0
-10 -7 -10 -15z"/>
<path d="M2256 1074 c-9 -23 -2 -28 13 -10 7 8 8 17 3 20 -6 3 -13 -1 -16 -10z"/>
<path d="M4810 750 c0 -5 5 -10 10 -10 6 0 10 5 10 10 0 6 -4 10 -10 10 -5 0
-10 -4 -10 -10z"/>
<path d="M5197 748 c-38 -21 -81 -28 -89 -15 -5 8 -8 7 -8 -5 0 -10 -5 -18
-11 -18 -7 0 -17 -6 -23 -14 -11 -14 -55 -20 -129 -17 -29 1 -40 6 -47 24 l-9
22 0 -22 c-1 -21 -5 -22 -91 -20 -58 2 -89 -1 -87 -8 2 -5 13 -9 23 -8 10 1
13 0 6 -3 -6 -3 -10 -9 -7 -13 2 -4 -11 -8 -29 -9 -19 -1 -38 -2 -42 -3 -5 -1
-11 0 -14 1 -22 8 -47 5 -43 -7 4 -9 -5 -13 -28 -15 -57 -2 110 -15 216 -16
99 -2 282 19 306 33 6 5 41 9 76 10 36 2 69 7 74 12 8 8 -6 81 -19 95 -4 4
-15 2 -25 -4z m-377 -109 c0 -16 -23 -21 -36 -7 -12 12 -11 14 11 14 14 0 25
-3 25 -7z m137 -15 c-3 -3 -12 -4 -19 -1 -8 3 -5 6 6 6 11 1 17 -2 13 -5z"/>
<path d="M5055 740 c-3 -5 -1 -10 4 -10 6 0 11 5 11 10 0 6 -2 10 -4 10 -3 0
-8 -4 -11 -10z"/>
<path d="M4823 713 c9 -2 23 -2 30 0 6 3 -1 5 -18 5 -16 0 -22 -2 -12 -5z"/>
<path d="M1742 679 c-13 -5 -36 -10 -52 -11 -20 -1 -30 -9 -34 -23 -6 -26 6
-79 19 -82 6 -1 18 -5 28 -8 11 -5 17 -2 17 7 0 8 9 23 20 33 11 10 20 27 20
38 0 15 5 18 24 13 30 -7 38 1 23 25 -13 21 -29 23 -65 8z"/>
<path d="M4315 660 c3 -5 11 -10 16 -10 6 0 7 5 4 10 -3 6 -11 10 -16 10 -6 0
-7 -4 -4 -10z"/>
<path d="M4488 623 c6 -2 18 -2 25 0 6 3 1 5 -13 5 -14 0 -19 -2 -12 -5z"/>
<path d="M1810 501 c0 -6 5 -13 10 -16 6 -3 10 1 10 9 0 9 -4 16 -10 16 -5 0
-10 -4 -10 -9z"/>
<path d="M4008 463 c7 -3 16 -2 19 1 4 3 -2 6 -13 5 -11 0 -14 -3 -6 -6z"/>
<path d="M3951 414 c0 -11 3 -14 6 -6 3 7 2 16 -1 19 -3 4 -6 -2 -5 -13z"/>
<path d="M3875 341 c-3 -5 -1 -12 5 -16 5 -3 10 1 10 9 0 18 -6 21 -15 7z"/>
<path d="M3070 305 c0 -8 5 -15 10 -15 6 0 10 7 10 15 0 8 -4 15 -10 15 -5 0
-10 -7 -10 -15z"/>
<path d="M3104 285 c-7 -18 4 -37 17 -29 6 4 6 11 -1 19 -8 10 -7 14 2 18 10
4 10 6 0 6 -7 1 -15 -6 -18 -14z"/>
<path d="M3548 273 c7 -3 16 -2 19 1 4 3 -2 6 -13 5 -11 0 -14 -3 -6 -6z"/>
<path d="M3385 240 c-3 -5 -1 -10 4 -10 6 0 11 5 11 10 0 6 -2 10 -4 10 -3 0
-8 -4 -11 -10z"/>
<path d="M4345 1040 c-3 -5 -1 -10 4 -10 6 0 11 5 11 10 0 6 -2 10 -4 10 -3 0
-8 -4 -11 -10z"/>
</g>
</svg>
